<svg width="25" height="24" viewBox="0 0 25 24" fill="none" xmlns="http://www.w3.org/2000/svg">
<path d="M8.49096 18.414C8.68261 18.3286 8.87674 18.2503 9.07274 18.1767C9.29395 18.0936 9.51703 18.0154 9.743 17.9472C10.0244 17.8624 10.308 17.7857 10.5956 17.7247C10.9833 17.6424 11.3754 17.5815 11.7707 17.543C11.5491 18.2399 11.3041 18.9329 11.0387 19.6214C11.05 19.7547 11.0562 19.8889 11.0597 20.0233C11.5942 19.9179 12.1464 19.8614 12.7118 19.8614C13.2773 19.8614 13.8295 19.9179 14.3639 20.0233C14.3674 19.8887 14.3734 19.7545 14.385 19.6214C14.1195 18.9329 13.8746 18.2399 13.6529 17.543C14.0482 17.5815 14.4404 17.6422 14.8281 17.7247C15.1154 17.7857 15.3993 17.8624 15.6807 17.9472C15.9068 18.0152 16.1297 18.0936 16.3509 18.1767C16.5469 18.2503 16.7413 18.3288 16.9329 18.414C18.2927 19.0196 19.5323 19.9177 20.5488 21.0833C23.097 18.8827 24.712 15.631 24.712 12C24.712 5.37264 19.3394 0 12.712 0C6.08467 0 0.712036 5.37264 0.712036 12C0.712036 15.631 2.32691 18.8829 4.87523 21.0833C5.89158 19.9177 7.13121 19.0194 8.49096 18.414Z" fill="#A0DBE8"/>
<path d="M9.28198 20.585C9.84535 20.3359 10.4402 20.1455 11.0598 20.0233C11.0562 19.8887 11.0503 19.7545 11.0387 19.6214C11.3041 18.9329 11.5491 18.2399 11.7708 17.543C11.3755 17.5814 10.9833 17.6422 10.5956 17.7247C10.3083 17.7857 10.0244 17.8624 9.74302 17.9472C9.51705 18.0152 9.29397 18.0933 9.07275 18.1766L9.94748 18.3885L9.28198 20.585Z" fill="#525353"/>
<path d="M7.21964 21.8788C7.24155 21.6551 7.25499 21.4295 7.25499 21.2017C7.25499 21.0646 7.36622 20.9534 7.50329 20.9534H7.7214L8.4909 18.4142C7.13115 19.0197 5.89152 19.9178 4.87476 21.0834C5.43524 21.5674 6.04037 22.0001 6.68417 22.375C6.85556 22.2019 7.03419 22.0363 7.21964 21.8788Z" fill="#525353"/>
<path d="M16.9327 18.414L17.7022 20.9532H17.9201C18.0574 20.9532 18.1684 21.0645 18.1684 21.2015C18.1684 21.4296 18.1819 21.6551 18.2038 21.8786C18.3895 22.0361 18.5679 22.202 18.7393 22.3746C19.3831 21.9998 19.9882 21.567 20.5487 21.0831C19.5321 19.9176 18.2925 19.0196 16.9327 18.414Z" fill="#525353"/>
<path d="M15.4762 18.3885L16.3507 18.1766C16.1295 18.0935 15.9064 18.0154 15.6805 17.9472C15.3991 17.8624 15.1154 17.7857 14.8278 17.7247C14.4402 17.6424 14.048 17.5814 13.6527 17.543C13.8743 18.2399 14.1193 18.9329 14.3848 19.6214C14.3734 19.7547 14.3672 19.8889 14.3637 20.0233C14.9835 20.1455 15.5783 20.3359 16.1417 20.585L15.4762 18.3885Z" fill="#525353"/>
<path d="M12.7118 20.9532H14.4028C14.368 20.6416 14.3556 20.3311 14.3639 20.0233C13.8295 19.9178 13.2773 19.8614 12.7118 19.8614C12.1464 19.8614 11.5944 19.9178 11.0597 20.0233C11.0678 20.3311 11.0554 20.6416 11.0209 20.9532H12.7118Z" fill="black"/>
<path d="M6.6842 22.3748C6.82376 22.4561 6.96434 22.5353 7.1072 22.6109C7.15723 22.3705 7.19548 22.1263 7.21967 21.8788C7.03422 22.0364 6.85559 22.202 6.6842 22.3748Z" fill="black"/>
<path d="M9.17029 20.9532H11.0208C11.0556 20.6417 11.068 20.3312 11.0597 20.0233C10.4401 20.1455 9.8451 20.3359 9.28193 20.585L9.17029 20.9532Z" fill="black"/>
<path d="M18.2037 21.8788C18.2279 22.1263 18.2662 22.3705 18.3162 22.6109C18.4591 22.5353 18.5999 22.4561 18.7392 22.3748C18.5678 22.202 18.3894 22.0364 18.2037 21.8788Z" fill="black"/>
<path d="M16.2533 20.9532L16.1417 20.5852C15.5783 20.3361 14.9835 20.1457 14.3637 20.0235C14.3556 20.3313 14.368 20.6419 14.4026 20.9534L16.2533 20.9532Z" fill="black"/>
<path d="M9.17033 20.9532L9.28197 20.585L9.94769 18.3884L9.07295 18.1765C8.87696 18.2501 8.68262 18.3286 8.49118 18.4138L7.72168 20.953H8.54783L9.17033 20.9532Z" fill="#AA9678"/>
<path d="M16.1419 20.5853L16.2536 20.9533H16.8761H17.7024L16.9329 18.414C16.7413 18.3287 16.547 18.2503 16.351 18.1767L15.4764 18.3886L16.1419 20.5853Z" fill="#AA9678"/>
<path d="M7.7467 21.4661C7.75415 21.4608 7.7618 21.4554 7.76945 21.45H7.74774C7.74753 21.4554 7.74691 21.4606 7.7467 21.4661Z" fill="#C0B098"/>
<path d="M12.7118 21.4498H10.9462H9.01978H7.76961C7.76196 21.4552 7.75431 21.4606 7.74687 21.466C7.73033 21.9348 7.66748 22.3946 7.56555 22.842C9.12522 23.5836 10.8697 24 12.7118 24V21.4498Z" fill="#C0B098"/>
<path d="M17.676 21.4498H17.6543C17.6619 21.4552 17.6696 21.4606 17.677 21.466C17.6766 21.4606 17.676 21.4554 17.676 21.4498Z" fill="#AA9678"/>
<path d="M17.654 21.4498H16.4041H14.4774H12.712V24C14.5541 24 16.2986 23.5838 17.8583 22.842C17.7564 22.3946 17.6937 21.9351 17.677 21.466C17.6693 21.4606 17.6617 21.4554 17.654 21.4498Z" fill="#AA9678"/>
<path d="M18.2037 21.8788C18.1818 21.6551 18.1684 21.4296 18.1684 21.2017C18.1684 21.0647 18.0571 20.9534 17.9201 20.9534H17.7022H16.8758H16.2533H14.4027H12.7118H11.0206H9.17006H8.54756H7.72141H7.5033C7.36602 20.9534 7.255 21.0647 7.255 21.2017C7.255 21.4298 7.24156 21.6553 7.21965 21.8788C7.19546 22.1263 7.15721 22.3704 7.10718 22.6109C7.25831 22.6909 7.41068 22.7686 7.56532 22.8422C7.66725 22.3948 7.72989 21.9353 7.74664 21.4662C7.74684 21.4608 7.74746 21.4554 7.74767 21.45H7.76938H9.01955H10.946H12.7116H14.477H16.4036H17.6536H17.6753C17.6755 21.4554 17.6761 21.4608 17.6763 21.4662C17.6929 21.935 17.7557 22.3948 17.8576 22.8422C18.0125 22.7686 18.1648 22.6909 18.3158 22.6109C18.2662 22.3702 18.2279 22.1263 18.2037 21.8788Z" fill="#8B7460"/>
<path d="M16.1477 19.2408C16.1115 19.1993 16.0741 19.1546 16.0354 19.1039C16.0741 19.1548 16.1115 19.1993 16.1477 19.2408Z" fill="#525353"/>
<path d="M16.4237 19.5149C16.4237 19.5149 16.4245 19.5178 16.4262 19.5228C16.4245 19.5178 16.4237 19.5149 16.4237 19.5149C16.4237 19.5149 16.3021 19.4186 16.1477 19.2408C16.3019 19.4186 16.4237 19.5149 16.4237 19.5149Z" fill="#AA9678"/>
<path d="M20.0869 8.65829L20.0871 8.65807L20.0869 8.65788L20.0867 8.6581L20.0869 8.65829Z" fill="white"/>
<path d="M20.5732 12.1125C20.5732 12.1112 20.5734 12.1102 20.5734 12.1089C20.5734 12.1102 20.5732 12.1114 20.5732 12.1125Z" fill="white"/>
<path d="M20.7016 9.32956C20.6996 9.32687 20.6975 9.32439 20.6956 9.3217H20.6958C20.5962 9.18318 20.4932 9.05686 20.3878 8.94212C20.3876 8.94171 20.3872 8.94129 20.3868 8.94108C20.387 8.9415 20.3874 8.94191 20.3878 8.94212C20.3868 8.94109 20.3859 8.93984 20.3851 8.93881C20.3371 8.88692 20.2888 8.83709 20.2398 8.79016C20.2212 8.77238 20.2021 8.75688 20.1835 8.73992C20.1527 8.71201 20.1219 8.68307 20.0907 8.65723V8.65785V9.77364L20.518 11.7309C20.5226 11.7462 20.5284 11.7602 20.5323 11.7762L20.8284 12.108L20.8313 12.1047H21.1412C21.1416 12.0759 21.1432 12.0476 21.1432 12.0189V12.0185C21.1432 11.0954 20.9915 10.2082 20.7167 9.37731C20.7115 9.3616 20.707 9.34548 20.7016 9.32956Z" fill="#BBBCBD"/>
<path d="M20.5734 12.109C20.5734 12.1079 20.5732 12.1069 20.5732 12.1057C20.5732 12.1069 20.5734 12.1079 20.5734 12.109Z" fill="#BBBCBD"/>
<path d="M20.5601 11.9221C20.5605 11.9252 20.5613 11.9281 20.5617 11.9314C20.5619 11.9332 20.5625 11.9351 20.5627 11.9369C20.5627 11.9372 20.5627 11.9374 20.5627 11.9378C20.5683 11.9837 20.5706 12.0314 20.5716 12.0798C20.5718 12.0887 20.5733 12.097 20.5733 12.1059C20.5733 12.1069 20.5735 12.1079 20.5735 12.1092C20.5735 12.1104 20.5733 12.1114 20.5733 12.1127C20.5733 12.1222 20.5718 12.1311 20.5716 12.1406C20.5706 12.1879 20.5685 12.2349 20.5629 12.2799C20.5629 12.2801 20.5629 12.2803 20.5629 12.2806C20.5627 12.2828 20.5621 12.2849 20.5617 12.2874C20.5613 12.2911 20.5603 12.2944 20.5596 12.2979C20.553 12.3469 20.5443 12.3947 20.5328 12.44C20.5328 12.4402 20.5328 12.4404 20.5326 12.4406L20.5342 12.4387C20.5344 12.4379 20.5346 12.4373 20.5348 12.4364L20.8284 12.1081L20.5323 11.7763C20.5323 11.7765 20.5324 11.7767 20.5326 11.7769C20.5443 11.8232 20.5532 11.8718 20.5601 11.9221Z" fill="#676A6A"/>
<path d="M20.5596 12.298C20.5604 12.2918 20.562 12.2862 20.5629 12.28C20.5684 12.2349 20.5705 12.188 20.5715 12.1406C20.5717 12.1299 20.5734 12.12 20.5734 12.1092C20.5734 12.0991 20.572 12.0898 20.5717 12.0799C20.5707 12.0315 20.5684 11.9837 20.5629 11.9378C20.5622 11.9324 20.5608 11.9275 20.56 11.9221C20.5531 11.8721 20.5443 11.8235 20.5325 11.7772C20.5283 11.7611 20.5225 11.7468 20.5178 11.7311C20.4895 11.6372 20.4506 11.5541 20.4047 11.4853C20.3985 11.4762 20.3923 11.4671 20.3859 11.4586C20.3733 11.4416 20.3607 11.4251 20.3472 11.4104C20.3274 11.3889 20.3069 11.3691 20.2852 11.3527C20.2769 11.3465 20.2682 11.3422 20.2598 11.3366C20.2412 11.3246 20.2219 11.3141 20.2021 11.306C20.1936 11.3025 20.1851 11.2992 20.1765 11.2965C20.1485 11.2878 20.12 11.2816 20.0904 11.2816C20.0609 11.2816 20.0326 11.2878 20.0044 11.2965C19.9958 11.2992 19.9873 11.3025 19.9788 11.306C19.959 11.3141 19.9399 11.3246 19.9211 11.3366C19.9129 11.3422 19.904 11.3463 19.8959 11.3527C19.8742 11.3691 19.8537 11.3889 19.8339 11.4104C19.8204 11.4251 19.8078 11.4416 19.7952 11.4586C19.7888 11.4673 19.7824 11.4764 19.7762 11.4855C19.7303 11.5545 19.6914 11.6374 19.6631 11.7313C19.6619 11.735 19.6606 11.7387 19.6596 11.7424C19.6472 11.7855 19.6373 11.8309 19.629 11.8777C19.6265 11.8919 19.6232 11.9056 19.6213 11.9202C19.6139 11.9723 19.61 12.0267 19.6091 12.0823C19.6089 12.09 19.6079 12.0974 19.6079 12.1051H19.6098C19.6098 12.5622 19.826 12.9327 20.0927 12.9327C20.1386 12.9327 20.1829 12.9207 20.2248 12.9C20.2317 12.8967 20.2383 12.8932 20.2449 12.8893C20.2625 12.8793 20.2794 12.8682 20.296 12.8551C20.305 12.8479 20.3135 12.839 20.3222 12.8307C20.3435 12.8109 20.3638 12.7884 20.383 12.7633C20.3962 12.746 20.4095 12.7284 20.4217 12.7088C20.4295 12.6964 20.4365 12.6827 20.4438 12.6695C20.4572 12.6447 20.47 12.6186 20.4816 12.5909C20.4857 12.581 20.4903 12.5715 20.4942 12.5612C20.5089 12.5227 20.5219 12.4824 20.5327 12.4398C20.5443 12.3947 20.5529 12.347 20.5596 12.298ZM20.1078 11.9988C20.0078 11.9988 19.9267 11.8599 19.9267 11.6885C19.9267 11.5171 20.0078 11.3782 20.1078 11.3782C20.2079 11.3782 20.2889 11.5171 20.2889 11.6885C20.2889 11.8599 20.2079 11.9988 20.1078 11.9988Z" fill="black"/>
<path d="M20.1079 11.9988C20.2079 11.9988 20.289 11.8599 20.289 11.6885C20.289 11.5171 20.2079 11.3782 20.1079 11.3782C20.0078 11.3782 19.9268 11.5171 19.9268 11.6885C19.9268 11.8599 20.0078 11.9988 20.1079 11.9988Z" fill="white"/>
<path d="M19.6632 11.7313C19.6915 11.6372 19.7304 11.5543 19.7763 11.4855C19.7825 11.4762 19.7889 11.4673 19.7953 11.4586C19.8077 11.4416 19.8205 11.4253 19.834 11.4104C19.8538 11.3887 19.8745 11.3693 19.896 11.3527C19.9043 11.3465 19.913 11.3422 19.9212 11.3366C19.9398 11.3244 19.9591 11.3141 19.9789 11.306C19.9874 11.3025 19.9959 11.2992 20.0045 11.2965C20.0325 11.2878 20.061 11.2816 20.0905 11.2816C20.1201 11.2816 20.1486 11.2876 20.1766 11.2965C20.1852 11.2992 20.1937 11.3025 20.2022 11.306C20.2218 11.3141 20.2411 11.3244 20.2599 11.3366C20.2683 11.3422 20.277 11.3465 20.2853 11.3527C20.307 11.3693 20.3275 11.3887 20.3473 11.4104C20.3608 11.4251 20.3736 11.4416 20.386 11.4586C20.3924 11.4673 20.3986 11.4762 20.4048 11.4853C20.4507 11.5543 20.4894 11.6372 20.5179 11.7311V11.7313L20.0905 9.77405L19.6632 11.7313Z" fill="#909393"/>
<path d="M14.4274 12.0908C14.4268 12.0515 14.4243 12.0126 14.4198 11.9742C14.4198 11.9735 14.4195 11.9731 14.4195 11.9725C14.415 11.9349 14.4088 11.8977 14.4007 11.8611C14.4005 11.86 14.4003 11.8592 14.4001 11.8582C14.392 11.822 14.3823 11.7867 14.3708 11.7519C14.3705 11.7511 14.3701 11.7503 14.3699 11.7494C14.3583 11.7147 14.3451 11.6806 14.3304 11.6475C14.3302 11.6469 14.3298 11.6461 14.3294 11.6454C14.3145 11.6122 14.298 11.5795 14.28 11.5481C14.225 11.4519 14.1564 11.3645 14.0768 11.2886C13.9757 11.1923 13.8566 11.1143 13.7255 11.0604C13.7245 11.06 13.7234 11.0595 13.7222 11.0591C13.6575 11.0327 13.5899 11.0122 13.5198 10.9981C13.5181 10.9977 13.5163 10.9977 13.5146 10.9973C13.4445 10.9837 13.372 10.976 13.2978 10.976C13.2248 10.976 13.1537 10.9835 13.0846 10.9967C13.0821 10.9971 13.0796 10.9973 13.0772 10.9977C13.0085 11.0114 12.9422 11.0314 12.8787 11.0571C12.877 11.0577 12.8752 11.0583 12.8735 11.0589C12.809 11.0852 12.7474 11.1172 12.6895 11.1544C12.6893 11.1546 12.6891 11.1546 12.6889 11.1546C12.6304 11.1923 12.5756 11.2351 12.5252 11.2824L12.5239 11.2863L12.5198 11.2874C12.4392 11.3639 12.3699 11.4521 12.3145 11.5493C12.3139 11.5506 12.313 11.5516 12.3124 11.5526C12.2955 11.5824 12.2804 11.6134 12.2661 11.6448C12.2647 11.6481 12.2628 11.6514 12.2614 11.6548C12.2485 11.6839 12.2376 11.7141 12.2272 11.7445C12.2252 11.7505 12.2227 11.7561 12.2208 11.7621C12.2117 11.7904 12.2045 11.8195 12.1977 11.8489C12.1958 11.8572 12.1931 11.8652 12.1913 11.8737C12.1853 11.9026 12.1811 11.932 12.1772 11.9618C12.1762 11.9709 12.1741 11.9795 12.1731 11.9886C12.1689 12.0273 12.1669 12.0668 12.1669 12.1065C12.1669 12.1813 12.1745 12.2543 12.1884 12.325C12.1886 12.3265 12.1888 12.3279 12.189 12.3296C12.2033 12.4001 12.2239 12.4683 12.2508 12.5334C12.2512 12.5342 12.2514 12.5353 12.2518 12.5361C12.3062 12.668 12.385 12.7873 12.4822 12.8886C12.5591 12.9686 12.6475 13.0375 12.7447 13.0924C12.7451 13.0927 12.7458 13.0931 12.7462 13.0933C12.7766 13.1102 12.808 13.1257 12.8398 13.14C12.8425 13.1412 12.845 13.1427 12.8477 13.1437C12.8772 13.1567 12.9078 13.1677 12.9389 13.1782C12.944 13.1801 12.9492 13.1822 12.9544 13.184C12.9829 13.1931 13.0122 13.2004 13.0418 13.2072C13.0499 13.209 13.0575 13.2115 13.0656 13.2132C13.0943 13.2192 13.1237 13.2231 13.1532 13.227C13.1621 13.2283 13.171 13.2301 13.1799 13.2312C13.2186 13.2351 13.2576 13.2374 13.2973 13.2374C13.4534 13.2374 13.6021 13.2057 13.7375 13.1485C13.8051 13.1199 13.8694 13.0848 13.9296 13.0443C14.0499 12.963 14.1537 12.8592 14.2349 12.7389C14.2754 12.6788 14.3106 12.6145 14.3391 12.5468C14.3964 12.4116 14.428 12.2628 14.428 12.1067C14.428 12.104 14.4276 12.1015 14.4276 12.0988C14.4278 12.0964 14.4274 12.0937 14.4274 12.0908ZM13.2976 11.9583C13.0629 11.9583 12.8729 11.768 12.8729 11.5336C12.8729 11.2989 13.0631 11.1089 13.2976 11.1089C13.5322 11.1089 13.7222 11.2992 13.7222 11.5336C13.7224 11.768 13.5322 11.9583 13.2976 11.9583Z" fill="black"/>
<path d="M13.2976 11.9581C13.5321 11.9581 13.7222 11.7679 13.7222 11.5334C13.7222 11.2989 13.5321 11.1088 13.2976 11.1088C13.063 11.1088 12.8729 11.2989 12.8729 11.5334C12.8729 11.7679 13.063 11.9581 13.2976 11.9581Z" fill="white"/>
<path d="M12.5198 11.288L12.5239 11.287L12.5251 11.283L13.3037 8.90177C13.3037 8.90177 13.3037 8.76077 13.3037 8.61998C13.3037 8.58029 13.3037 8.54101 13.3037 8.50441C13.3037 8.49221 13.3037 8.48022 13.3037 8.46885C13.3037 8.45107 13.3037 8.43495 13.3037 8.41985C13.3037 8.40931 13.3037 8.39897 13.3037 8.39029C13.3037 8.37851 13.3037 8.36879 13.3037 8.36073C13.3037 8.35411 13.3037 8.34832 13.3037 8.3446C13.3037 8.34047 13.3037 8.33819 13.3037 8.33819C12.8702 8.24929 12.4242 8.2005 11.9678 8.2005C11.8154 8.2005 11.6643 8.20691 11.5142 8.21725C11.4922 8.21869 11.4703 8.22014 11.4484 8.22179C10.6667 8.28113 9.89722 8.48498 9.18457 8.81019C8.57344 9.08929 8.00552 9.45688 7.49507 9.89269C7.49486 9.8929 7.49445 9.89331 7.49424 9.89352C7.35717 10.0099 7.22589 10.1329 7.0975 10.2588C7.07352 10.2824 7.04912 10.3056 7.02555 10.3293C6.90482 10.4511 6.78801 10.5768 6.67512 10.7062C6.65052 10.7343 6.62654 10.7631 6.60235 10.7916C6.48905 10.9254 6.37865 11.0616 6.27404 11.2026C6.26536 11.2144 6.25709 11.2268 6.24841 11.2386C6.14855 11.3744 6.05365 11.5138 5.96207 11.6556C5.94429 11.6833 5.92589 11.7106 5.90831 11.7385C5.8343 11.8559 5.76525 11.9767 5.69702 12.0976H9.23791H9.24412L12.5198 11.288Z" fill="#BBBCBD"/>
<path d="M15.5144 11.0199C15.5216 10.9271 15.5276 10.8341 15.5324 10.7412C15.5388 10.6153 15.5431 10.4894 15.5456 10.3635C15.5475 10.2657 15.5472 10.1679 15.5468 10.0701C15.5466 10.0418 15.5475 10.0137 15.547 9.98537C15.5444 9.73335 15.5346 9.48092 15.5191 9.22848C15.5185 9.22807 15.5177 9.22745 15.5171 9.22703C15.5166 9.22641 15.5164 9.22579 15.516 9.22517C15.515 9.22455 15.5115 9.22249 15.5082 9.22062C15.5051 9.21897 15.5026 9.21732 15.4968 9.21422C15.4505 9.18755 15.3366 9.12242 15.2344 9.06433C15.2324 9.06309 15.2301 9.06185 15.228 9.06061C15.2022 9.04593 15.1772 9.03187 15.1546 9.01905C15.1542 9.01884 15.1536 9.01843 15.1534 9.01822C15.134 9.00727 15.1176 8.99817 15.1025 8.98969C15.0994 8.98804 15.0953 8.98556 15.0926 8.98411C15.0761 8.97481 15.0631 8.96778 15.0556 8.96406C14.8925 8.8795 14.7261 8.80114 14.5569 8.72961C14.1536 8.55925 13.6103 8.40998 13.3041 8.33783V8.55222V8.60225V8.61962C13.3041 8.76062 13.3041 8.90141 13.3041 8.90141L14.0759 11.2866L14.0767 11.2887C14.1563 11.3646 14.2249 11.452 14.2799 11.5481C14.2979 11.5798 14.3144 11.6122 14.3293 11.6455C14.3297 11.6461 14.3299 11.6468 14.3304 11.6476C14.3452 11.6807 14.3583 11.7148 14.3698 11.7495C14.37 11.7503 14.3705 11.7512 14.3707 11.752C14.382 11.7867 14.392 11.8221 14.4 11.8583C14.4002 11.8593 14.4004 11.8601 14.4006 11.8612C14.4087 11.8975 14.4151 11.9348 14.4195 11.9726C14.4195 11.9732 14.4197 11.9736 14.4197 11.9742C14.4242 12.0125 14.4267 12.0514 14.4273 12.0908L14.4302 12.0973H15.3752C15.4391 11.7514 15.4836 11.4009 15.5119 11.0491C15.5125 11.0393 15.5135 11.0296 15.5144 11.0199Z" fill="#E2DDDB"/>
<path d="M16.7504 10.1766C16.7498 10.1776 16.7494 10.1788 16.7488 10.1799C16.7494 10.1788 16.75 10.1778 16.7504 10.1766Z" fill="#FBB040"/>
<path d="M14.4354 15.496C14.6498 15.2827 14.8522 15.0784 15.0453 14.8781C15.16 14.7592 15.2721 14.6413 15.3792 14.5252C16.1689 13.6678 16.7489 12.8654 17.0976 11.8334C17.1059 11.8088 17.1142 11.7765 17.122 11.7403C17.1233 11.7347 17.1245 11.7294 17.1258 11.7236C17.134 11.6851 17.1419 11.6423 17.1497 11.594C17.1528 11.5607 17.1561 11.5284 17.159 11.4972C17.0714 11.0477 16.9012 10.6111 16.7511 10.1796C16.7518 10.1811 16.7522 10.1825 16.7528 10.184C16.752 10.1831 16.7491 10.1804 16.7484 10.1798C16.7197 10.1525 16.6895 10.1271 16.6604 10.1002C16.5715 10.0184 16.4811 9.93835 16.3891 9.86082C16.1131 9.62803 15.8233 9.41591 15.5189 9.22839C15.5345 9.48083 15.5442 9.73326 15.5469 9.98528C15.5473 10.0136 15.5464 10.0417 15.5466 10.07C15.5471 10.1678 15.5473 10.2656 15.5454 10.3634C15.5429 10.4893 15.5386 10.6152 15.5322 10.7411C15.5274 10.8342 15.5214 10.927 15.5142 11.0198C15.5134 11.0295 15.5123 11.0391 15.5117 11.0488C15.4836 11.4009 15.4389 11.7511 15.3751 12.097L15.264 12.6219C15.0323 13.5617 14.5613 14.4143 14.1741 15.2947C14.0713 15.5281 13.974 15.7642 13.8886 16.0046C13.8807 16.0267 13.8724 16.0499 13.8644 16.0726C13.9853 15.9455 14.0924 15.8357 14.1739 15.7551C14.2628 15.6672 14.35 15.581 14.4354 15.496Z" fill="#FBB040"/>
<path d="M12.5251 11.2831C12.5756 11.2358 12.6304 11.193 12.6889 11.1553C12.6891 11.1551 12.6893 11.1551 12.6895 11.1551C12.7474 11.1179 12.809 11.0859 12.8735 11.0596C12.8752 11.059 12.877 11.0584 12.8787 11.0578C12.9421 11.0321 13.0085 11.0121 13.0772 10.9984C13.0796 10.998 13.0821 10.9978 13.0846 10.9974C13.1536 10.9842 13.2248 10.9767 13.2977 10.9767C13.372 10.9767 13.4443 10.9844 13.5146 10.998C13.5165 10.9984 13.5181 10.9984 13.5198 10.9988C13.5899 11.0129 13.6575 11.0336 13.7222 11.0598C13.7232 11.0602 13.7243 11.0606 13.7255 11.0611C13.8568 11.115 13.9757 11.193 14.0768 11.2893L14.0759 11.2872L13.3042 8.90204L12.5251 11.2831Z" fill="#909393"/>
<path d="M12.251 12.5338C12.2243 12.4687 12.2034 12.4005 12.1892 12.33C12.189 12.3285 12.1888 12.3271 12.1886 12.3254C12.1747 12.2547 12.1671 12.1817 12.1671 12.1069C12.1671 12.067 12.1691 12.0277 12.1733 11.9891C12.1743 11.98 12.1762 11.9713 12.1774 11.9622C12.1813 11.9326 12.1852 11.903 12.1914 11.8741C12.1933 11.8656 12.1958 11.8576 12.1979 11.8493C12.2047 11.8199 12.2119 11.7908 12.221 11.7625C12.2229 11.7565 12.2254 11.7509 12.2274 11.7449C12.2378 11.7145 12.2487 11.6843 12.2615 11.6552C12.263 11.6519 12.2648 11.6485 12.2663 11.6452C12.2806 11.6138 12.2956 11.5828 12.3126 11.553C12.3132 11.5518 12.314 11.5508 12.3147 11.5497C12.3701 11.4526 12.4393 11.3643 12.52 11.2878L9.24412 12.097H9.23792L12.4825 12.8888C12.3854 12.7875 12.3066 12.6682 12.2522 12.5363C12.2516 12.5357 12.2514 12.5347 12.251 12.5338Z" fill="#676A6A"/>
<path d="M19.6214 11.92C19.6235 11.9053 19.6266 11.8917 19.629 11.8774C19.6373 11.8309 19.647 11.7854 19.6596 11.7422C19.6611 11.7374 19.6617 11.7319 19.6629 11.7271L20.0903 9.76986V8.65385C19.7411 8.36545 19.3671 8.2077 18.9776 8.2077C18.4857 8.2077 18.027 8.47936 17.684 8.81491C17.3086 9.18208 17.0187 9.64416 16.784 10.1104C16.7733 10.1319 16.7623 10.1523 16.7516 10.174C16.8239 10.2367 16.8955 10.3002 16.966 10.3647C17.1258 10.5108 17.2821 10.6607 17.4361 10.8129C17.5081 10.8838 17.5784 10.9562 17.6491 11.0283C17.7241 11.1046 17.7992 11.1809 17.873 11.2584C17.9679 11.3583 18.0621 11.459 18.1554 11.5607C18.1947 11.6035 18.2337 11.6465 18.2726 11.6895C18.3849 11.8139 18.4967 11.9388 18.6067 12.0655L18.6069 12.0657C18.6253 12.0852 18.6383 12.0988 18.6433 12.1046H19.6071C19.6071 12.0968 19.6088 12.0897 19.6088 12.0819C19.6102 12.0265 19.6139 11.9721 19.6214 11.92Z" fill="#E2DDDB"/>
<path d="M16.7515 10.1795C16.7511 10.1784 16.7508 10.1774 16.7504 10.1766C16.7498 10.1776 16.7494 10.1786 16.7488 10.1799C16.7494 10.1805 16.7523 10.1832 16.7531 10.184C16.7527 10.1826 16.7521 10.1811 16.7515 10.1795Z" fill="#E2DDDB"/>
<path d="M5.11565 13.3288C5.11834 13.3215 5.12144 13.3145 5.12413 13.3073C5.18615 13.145 5.25417 12.9847 5.3257 12.8262C5.34555 12.7819 5.36623 12.7383 5.38669 12.6943C5.4452 12.5698 5.50702 12.447 5.57111 12.3252C5.59716 12.2756 5.62259 12.226 5.64967 12.177C5.66456 12.1499 5.68151 12.1241 5.6966 12.097C5.76503 11.976 5.83388 11.8553 5.90789 11.7379C5.92547 11.71 5.94387 11.6827 5.96165 11.655C6.05323 11.5134 6.14834 11.3738 6.24799 11.238C6.25667 11.2262 6.26473 11.2138 6.27362 11.202C6.37823 11.0612 6.48864 10.9248 6.60193 10.791C6.62612 10.7625 6.6501 10.7337 6.6747 10.7056C6.78759 10.5762 6.90419 10.4505 7.02513 10.3287C7.04891 10.3049 7.0731 10.2818 7.09708 10.2582C7.22547 10.1323 7.35675 10.0095 7.49382 9.8929C7.49403 9.89269 7.49444 9.89228 7.49465 9.89207C8.03363 8.08596 9.68323 6.77128 11.6351 6.77128C12.4209 6.77128 13.202 6.99767 13.8716 7.40722C14.5584 7.82733 15.1181 8.4428 15.4818 9.1602C15.4836 9.16372 15.4855 9.16744 15.4871 9.17095C15.4962 9.18915 15.5066 9.20651 15.5157 9.22491C15.5159 9.22553 15.5163 9.22615 15.5167 9.22677C15.5173 9.22719 15.5181 9.22781 15.5188 9.22822C15.8229 9.41553 16.113 9.62785 16.389 9.86065C16.481 9.93818 16.5713 10.0182 16.6602 10.1001C16.6894 10.1269 16.7195 10.1524 16.7483 10.1797C16.7489 10.1786 16.7493 10.1774 16.7499 10.1763C16.7503 10.1757 16.7508 10.1749 16.751 10.1743C16.7609 10.1538 16.7706 10.1331 16.7807 10.1133C17.0557 8.37726 17.8215 7.12667 18.7247 7.12667C19.4055 7.12667 20.0086 7.83663 20.3824 8.92927L20.3861 8.94105C20.3865 8.94147 20.3867 8.94188 20.3872 8.94229C20.4926 9.05704 20.5956 9.18336 20.6952 9.32188H20.695C20.6971 9.32456 20.6989 9.32704 20.701 9.32973V9.32952V9.32973C20.7064 9.34565 20.7109 9.36178 20.7161 9.3777L20.7018 9.32084C19.5782 5.99434 16.432 3.59943 12.7263 3.59943C8.07808 3.59943 4.31018 7.36753 4.31018 12.0155C4.31018 12.9318 4.45656 13.814 4.72842 14.635C4.72884 14.6333 4.72925 14.6319 4.72946 14.6302C4.783 14.3825 4.84689 14.1365 4.92152 13.893C4.98044 13.703 5.04515 13.5148 5.11565 13.3288Z" fill="#525353"/>
<path d="M20.8283 12.1083L20.5347 12.4367C20.5345 12.4375 20.5343 12.4381 20.5341 12.4389C20.5229 12.4819 20.5093 12.5225 20.4942 12.5613C20.4903 12.5717 20.4859 12.5812 20.4816 12.5911C20.4698 12.6186 20.4574 12.6448 20.4438 12.6697C20.4365 12.6829 20.4293 12.6965 20.4216 12.7089C20.4094 12.7286 20.3964 12.7462 20.383 12.7635C20.3637 12.7885 20.3435 12.8111 20.3222 12.8309C20.3135 12.8392 20.305 12.8481 20.2959 12.8553C20.2794 12.8685 20.2622 12.8795 20.2449 12.8894C20.2383 12.8931 20.2316 12.8969 20.2248 12.9002C20.1828 12.9206 20.1386 12.9328 20.0927 12.9328C19.826 12.9328 19.6098 12.5624 19.6098 12.1052H19.6079H19.6075H18.6436H18.6407C18.641 12.1055 18.6412 12.1057 18.6414 12.1059C18.8212 12.3136 18.9982 12.5243 19.1725 12.7368C19.1746 12.7393 19.1766 12.742 19.1789 12.7445C19.3484 12.9515 19.5157 13.1605 19.6809 13.3705C19.6889 13.3809 19.6972 13.391 19.7053 13.4013C19.862 13.6012 20.017 13.8024 20.1706 14.004C20.1855 14.0236 20.2006 14.0431 20.2155 14.0625C20.378 14.2763 20.5391 14.4907 20.6987 14.7053C20.6997 14.7067 20.7009 14.7084 20.702 14.7098C20.9788 13.8905 21.1337 13.0153 21.1434 12.105H21.1413H20.8314L20.8283 12.1083Z" fill="white"/>
<path d="M11.4484 8.22138C11.4703 8.21972 11.4922 8.21827 11.5141 8.21683C11.6642 8.2067 11.8154 8.20008 11.9677 8.20008C12.424 8.20008 12.87 8.24908 13.3037 8.33777C13.3037 8.33777 13.3037 8.34005 13.3037 8.34418C13.3037 8.3479 13.3037 8.35369 13.3037 8.36031C13.3037 8.36837 13.3037 8.3785 13.3037 8.38987C13.3037 8.39876 13.3037 8.40889 13.3037 8.41944C13.3037 8.43432 13.3037 8.45107 13.3037 8.46843C13.3037 8.4798 13.3037 8.4918 13.3037 8.50399C13.3037 8.5195 13.3037 8.53563 13.3037 8.55217V8.33777C13.6099 8.40993 14.1532 8.55919 14.5566 8.72955C14.7259 8.80108 14.8923 8.87923 15.0552 8.964C15.0627 8.96793 15.0757 8.97495 15.0922 8.98405C15.0951 8.98571 15.0993 8.98798 15.1022 8.98963C15.1173 8.99811 15.1338 9.00721 15.153 9.01816C15.1534 9.01837 15.1541 9.01878 15.1543 9.01899C15.177 9.03181 15.2016 9.04587 15.2277 9.06055C15.2297 9.06179 15.232 9.06303 15.2341 9.06427C15.3378 9.12319 15.4526 9.18893 15.4964 9.21416C15.502 9.21746 15.5047 9.21891 15.5078 9.22057C15.5099 9.22181 15.515 9.2247 15.5156 9.22511C15.5066 9.20692 15.4962 9.18935 15.4871 9.17115C15.4853 9.16764 15.4836 9.16392 15.4817 9.1604C15.1183 8.443 14.5584 7.82753 13.8716 7.40743C13.202 6.99787 12.4207 6.77148 11.6351 6.77148C9.68321 6.77148 8.03361 8.08617 7.49463 9.89227C8.00508 9.45646 8.5728 9.08887 9.18414 8.80977C9.89719 8.48435 10.6669 8.28071 11.4484 8.22138Z" fill="black"/>
<path d="M17.684 8.81534C18.027 8.4798 18.4858 8.20814 18.9776 8.20814C19.3671 8.20814 19.7411 8.36588 20.0903 8.65429C20.0903 8.65429 20.0903 8.65677 20.0903 8.6576V8.65822V8.6576C20.1215 8.68323 20.1521 8.71218 20.1831 8.74029C20.2017 8.75725 20.221 8.77275 20.2394 8.79053C20.2884 8.83746 20.3367 8.88708 20.3847 8.93918C20.3857 8.94021 20.3866 8.94145 20.3874 8.94249C20.3872 8.94207 20.3868 8.94166 20.3864 8.94145L20.3824 8.92967C20.0086 7.83703 19.4056 7.12708 18.7248 7.12708C17.8215 7.12708 17.0557 8.37767 16.7808 10.1137L16.7837 10.1112C17.0187 9.64459 17.3088 9.18252 17.684 8.81534Z" fill="black"/>
<path d="M9.7136 19.866C9.79051 19.8955 9.86866 19.9222 9.9466 19.9495C10.8172 20.2544 11.7521 20.4225 12.7271 20.4225C13.8387 20.4225 14.8989 20.205 15.8704 19.8135C15.9219 19.7928 15.9721 19.77 16.023 19.7483C16.1055 19.7132 16.1874 19.677 16.2684 19.6394C16.341 19.6057 16.4135 19.5722 16.4849 19.5366C16.4677 19.5387 16.4503 19.542 16.4332 19.5441C16.1311 19.578 15.8315 19.58 15.5386 19.5381C13.8069 19.2892 13.4232 18.4541 13.4782 17.5846C13.3535 17.5126 13.2266 17.4318 13.0976 17.3381C11.7657 16.372 10.9754 15.3426 10.9754 15.3426C10.9754 15.3426 12.0027 16.1357 13.5373 16.7293C13.5702 16.7421 13.601 16.753 13.6335 16.7652C13.7052 16.5173 13.79 16.2817 13.8646 16.0728C13.8727 16.0501 13.8809 16.0269 13.8888 16.0048C13.9742 15.7644 14.0715 15.5285 14.1743 15.2949C14.5615 14.4146 15.0323 13.5619 15.2642 12.6221L15.3753 12.0972H14.4302H14.4282C14.4282 12.0978 14.4282 12.0984 14.4282 12.099L14.4278 12.0992C14.4278 12.1019 14.4282 12.1044 14.4282 12.1071C14.4282 12.2632 14.3965 12.4118 14.3393 12.5472C14.3105 12.6149 14.2756 12.6792 14.2351 12.7393C14.1538 12.8596 14.05 12.9634 13.9297 13.0447C13.8696 13.0854 13.8053 13.1203 13.7377 13.1489C13.6024 13.2061 13.4536 13.2378 13.2975 13.2378C13.2578 13.2378 13.2187 13.2357 13.1801 13.2316C13.171 13.2305 13.1623 13.2287 13.1534 13.2274C13.1238 13.2237 13.0945 13.2196 13.0657 13.2136C13.0577 13.2119 13.05 13.2094 13.042 13.2076C13.0124 13.2008 12.983 13.1935 12.9545 13.1844C12.9493 13.1828 12.9442 13.1805 12.939 13.1786C12.9082 13.1683 12.8774 13.1571 12.8478 13.1441C12.8451 13.1429 12.8427 13.1416 12.84 13.1404C12.8079 13.1261 12.7765 13.1108 12.7463 13.0937C12.7459 13.0935 12.7453 13.0931 12.7449 13.0928C12.6475 13.0381 12.559 12.9692 12.4823 12.889L9.23768 12.0972H5.69679C5.68149 12.124 5.66474 12.1501 5.64986 12.1772C5.62277 12.2262 5.59734 12.276 5.57129 12.3254C5.5072 12.447 5.44518 12.5698 5.38688 12.6944C5.3662 12.7383 5.34574 12.7821 5.32589 12.8264C5.25456 12.9849 5.18654 13.1452 5.12431 13.3074C5.12163 13.3147 5.11853 13.3217 5.11584 13.3289C5.04534 13.515 4.98063 13.7032 4.92253 13.8929C4.84811 14.1365 4.78402 14.3825 4.73047 14.6302C5.28806 16.3304 6.37242 17.7913 7.79027 18.8211C7.83141 18.8511 7.87503 18.8777 7.9168 18.9069C8.15662 19.0746 8.4043 19.2313 8.66148 19.3737C8.99889 19.5604 9.34973 19.7262 9.7136 19.866Z" fill="white"/>
<path d="M15.5243 17.2519C15.5115 17.3421 15.5026 17.4308 15.5001 17.5164C15.4951 17.672 15.5059 17.8198 15.5286 17.9596C15.5437 18.0528 15.564 18.1424 15.5884 18.228C15.625 18.3566 15.6709 18.4767 15.7223 18.5877C15.7736 18.6987 15.8305 18.8006 15.8888 18.8933C15.9082 18.9241 15.9278 18.9538 15.9475 18.9826C15.977 19.0256 16.0066 19.0661 16.0358 19.1041C16.0744 19.1548 16.1118 19.1992 16.148 19.241C16.3025 19.4186 16.424 19.5151 16.424 19.5151C16.424 19.5151 16.4249 19.518 16.4265 19.523C16.4282 19.528 16.4306 19.5354 16.4335 19.5443C16.4507 19.5424 16.4681 19.5391 16.4852 19.5369C16.8605 19.4899 17.2386 19.3882 17.6116 19.254C17.8018 19.1856 17.9911 19.1114 18.1776 19.0264C18.2345 19.0004 18.2901 18.9716 18.3465 18.9443C20.2744 18.0121 21.8887 16.3633 21.8887 16.3633C19.466 17.5534 17.0986 17.506 15.5243 17.2519Z" fill="#9F2255"/>
<path d="M20.1706 14.0043C20.0169 13.8025 19.8621 13.6013 19.7052 13.4016C19.6971 13.3913 19.6888 13.3811 19.6808 13.3708C19.5156 13.1605 19.3483 12.9517 19.1788 12.7448C19.1767 12.7423 19.1747 12.7396 19.1724 12.7371C18.9979 12.5246 18.8211 12.3139 18.6413 12.1061C18.6299 12.0929 18.6185 12.0797 18.607 12.0664C18.497 11.9399 18.3851 11.8148 18.2729 11.6904C18.2338 11.6474 18.1949 11.6044 18.1556 11.5616C18.0624 11.4599 17.9683 11.3592 17.8732 11.2593C17.7992 11.1818 17.7244 11.1055 17.6493 11.0292C17.5786 10.9573 17.5081 10.8847 17.4364 10.8138C17.2819 10.6618 17.1258 10.5117 16.9662 10.3656C16.8955 10.3011 16.824 10.2374 16.7516 10.1747C16.7512 10.1756 16.751 10.1762 16.7506 10.1768C16.9028 10.6139 17.0762 11.0565 17.1631 11.5122C17.1856 11.6306 17.2044 11.7462 17.2195 11.8589C17.4314 13.4365 16.9259 14.4665 16.1229 15.8215C16.0655 15.9187 16.0063 16.0173 15.946 16.1182C15.7624 16.4242 15.6447 16.714 15.5767 16.9863C15.554 17.0771 15.5368 17.1658 15.5244 17.2524C17.0988 17.5065 19.4662 17.5538 21.8884 16.3636C21.8884 16.3636 21.4135 15.6654 20.6986 14.7057C20.5388 14.4911 20.3777 14.2767 20.2154 14.063C20.2005 14.0431 20.1854 14.0237 20.1706 14.0043Z" fill="#E2066F"/>
<path d="M16.4236 19.515C16.4236 19.515 16.302 19.4186 16.1476 19.2408C16.1114 19.1991 16.0742 19.1546 16.0353 19.104C16.0062 19.0659 15.9766 19.0254 15.9471 18.9824C15.9274 18.9537 15.9078 18.9239 15.8884 18.8931C15.8301 18.8007 15.7732 18.6987 15.7219 18.5875C15.6707 18.4765 15.6248 18.3564 15.588 18.2278C15.5636 18.142 15.5433 18.0525 15.5282 17.9594C15.5057 17.8197 15.4949 17.6718 15.4997 17.5162C15.5024 17.4306 15.511 17.3419 15.5239 17.2517C15.5363 17.1651 15.5534 17.0762 15.5762 16.9857C15.6442 16.7136 15.7618 16.4237 15.9454 16.1175C15.946 16.1167 15.9464 16.1159 15.9469 16.1151C16.0068 16.0152 16.0653 15.9172 16.1224 15.8211C16.9252 14.4661 17.4307 13.4361 17.219 11.8584C17.2039 11.7458 17.185 11.6304 17.1625 11.5117C17.1505 11.5936 17.1381 11.6641 17.1255 11.7234C17.1243 11.7292 17.123 11.7346 17.1218 11.7402C17.1137 11.7761 17.1057 11.8088 17.0974 11.8332C16.7486 12.8653 16.1687 13.6676 15.3789 14.525C15.2718 14.6412 15.1598 14.759 15.045 14.8779C14.8519 15.078 14.6495 15.2825 14.4352 15.4959C14.3498 15.5808 14.2625 15.6673 14.1738 15.7551C14.0924 15.8358 13.9853 15.9457 13.8643 16.0727C13.7897 16.2817 13.7047 16.5174 13.6332 16.7651C13.6009 16.7529 13.5701 16.7419 13.5371 16.7291C12.0026 16.1355 10.9751 15.3425 10.9751 15.3425C10.9751 15.3425 11.7655 16.3718 13.0973 17.338C13.2263 17.4316 13.3533 17.5124 13.4779 17.5844C13.4229 18.454 13.8067 19.289 15.5383 19.5379C15.8311 19.5801 16.1309 19.578 16.4329 19.5439C16.4298 19.535 16.4275 19.5276 16.4259 19.5226C16.4244 19.5179 16.4236 19.515 16.4236 19.515Z" fill="black"/>
</svg>
