<?xml version="1.0"?>
<svg xmlns="http://www.w3.org/2000/svg" id="Layer_2" data-name="Layer 2" viewBox="0 0 128 128" width="512" height="512"><path d="M126.247,78.643h-7.139l8.859-46.818a1.751,1.751,0,0,0-1.72-2.075h-23.52a25.743,25.743,0,0,0-51.368,0H29.135l-1.727-5.672A15.663,15.663,0,0,0,12.342,12.917H1.747A1.749,1.749,0,0,0,0,14.667v8a1.749,1.749,0,0,0,1.75,1.75h10.6a4.229,4.229,0,0,1,4.066,3.012l14.62,48.009a21.037,21.037,0,0,0,1.27,3.2H31.15a15.137,15.137,0,1,0,0,30.274h5.6v.959a12.374,12.374,0,1,0,24.748,0v-.959h19.56v.959a12.374,12.374,0,0,0,24.748,0v-.959h12.46a1.75,1.75,0,0,0,1.75-1.75v-8a1.75,1.75,0,0,0-1.75-1.75H31.15a3.637,3.637,0,1,1,0-7.274h95.1a1.75,1.75,0,0,0,1.75-1.75v-8A1.749,1.749,0,0,0,126.247,78.643ZM77.043,9.25A22.25,22.25,0,1,1,54.793,31.5,22.275,22.275,0,0,1,77.043,9.25Zm-25.691,24a25.751,25.751,0,0,0,51.382,0h21.4l-8.589,45.393H50.878a9.2,9.2,0,0,1-8.85-6.555L30.2,33.25ZM58,109.876a8.874,8.874,0,1,1-17.748,0v-.959H58Zm44.308,0a8.874,8.874,0,0,1-17.748,0v-.959h17.748ZM124.5,86.643H31.15a7.137,7.137,0,1,0,0,14.274h85.366v4.5H31.15a11.637,11.637,0,1,1,0-23.274h4.219A1.75,1.75,0,0,0,36.8,79.385a17.363,17.363,0,0,1-2.424-4.967l-14.62-48.01a7.711,7.711,0,0,0-7.414-5.491H3.5v-4.5h8.845A12.183,12.183,0,0,1,24.061,25.1l2.1,6.908v0l12.516,41.1a12.68,12.68,0,0,0,12.2,9.036H124.5Z" style="fill:rgb(0,0,0)"/><path d="M65.876,37.25h5.417v5.417a1.749,1.749,0,0,0,1.75,1.75h8a1.749,1.749,0,0,0,1.75-1.75V37.25H88.21a1.749,1.749,0,0,0,1.75-1.75v-8a1.749,1.749,0,0,0-1.75-1.75H82.793V20.333a1.749,1.749,0,0,0-1.75-1.75h-8a1.749,1.749,0,0,0-1.75,1.75V25.75H65.876a1.749,1.749,0,0,0-1.75,1.75v8A1.749,1.749,0,0,0,65.876,37.25Zm1.75-8h5.417a1.749,1.749,0,0,0,1.75-1.75V22.083h4.5V27.5a1.749,1.749,0,0,0,1.75,1.75H86.46v4.5H81.043a1.749,1.749,0,0,0-1.75,1.75v5.417h-4.5V35.5a1.749,1.749,0,0,0-1.75-1.75H67.626Z" style="fill:rgb(0,0,0)"/></svg>
