<svg xmlns="http://www.w3.org/2000/svg" width="63.132" height="62" viewBox="0 0 63.132 62">
  <g id="Group_6" data-name="Group 6" transform="translate(-2020.868 -668)">
    <g id="Group_5" data-name="Group 5">
      <g id="Group_4" data-name="Group 4">
        <g id="Group_3" data-name="Group 3">
          <g id="Group_2" data-name="Group 2">
            <g id="Group_1" data-name="Group 1">
              <path id="Path_3" data-name="Path 3" d="M1,43H3v2H1Z" transform="translate(2021 667)"/>
              <path id="Path_4" data-name="Path 4" d="M5,43H7v2H5Z" transform="translate(2021 667)"/>
              <path id="Path_5" data-name="Path 5" d="M9,43h2v2H9Z" transform="translate(2021 667)"/>
              <path id="Path_6" data-name="Path 6" d="M9,19h2v2H9Z" transform="translate(2021 667)"/>
              <path id="Path_7" data-name="Path 7" d="M5,19H7v2H5Z" transform="translate(2021 667)"/>
              <path id="Path_8" data-name="Path 8" d="M1,19H3v2H1Z" transform="translate(2021 667)"/>
              <path id="Path_9" data-name="Path 9" d="M19,7v4h2V7H32V5H21A2,2,0,0,0,19,7Z" transform="translate(2021 667)"/>
              <path id="Path_10" data-name="Path 10" d="M49,57H45v2h4a2,2,0,0,0,2-2V47H49Z" transform="translate(2021 667)"/>
              <path id="Path_11" data-name="Path 11" d="M19,55h2v2H19Z" transform="translate(2021 667)"/>
              <path id="Path_12" data-name="Path 12" d="M19,47h2v2H19Z" transform="translate(2021 667)"/>
              <path id="Path_13" data-name="Path 13" d="M19,51h2v2H19Z" transform="translate(2021 667)"/>
              <path id="Path_14" data-name="Path 14" d="M58,1H20a5.006,5.006,0,0,0-5,5V19H13v2H26a11,11,0,0,1,0,22H13v2h2V58a5.006,5.006,0,0,0,5,5H58a5.006,5.006,0,0,0,5-5V6A5.006,5.006,0,0,0,58,1ZM20,61a3,3,0,0,1-3-3V45h9a13,13,0,0,0,0-26H17V6a3,3,0,0,1,3-3H50a3,3,0,0,1,3,3V58a3,3,0,0,1-3,3Zm41-3a3,3,0,0,1-3,3H53.974A4.948,4.948,0,0,0,55,58V6a4.948,4.948,0,0,0-1.026-3H58a3,3,0,0,1,3,3Z" transform="translate(2021 667)"/>
              <path id="Path_15" data-name="Path 15" d="M49,43h2v2H49Z" transform="translate(2021 667)"/>
              <path id="Path_16" data-name="Path 16" d="M49,39h2v2H49Z" transform="translate(2021 667)"/>
              <path id="Path_17" data-name="Path 17" d="M34,5h2V7H34Z" transform="translate(2021 667)"/>
              <path id="Path_20" data-name="Path 20" d="M4.422-6.49l2.662-7.326h.044L9.746-6.49Zm1.562-9.218L-.132,0H2l1.76-4.73h6.644L12.122,0h2.31L8.294-15.708Z" transform="translate(2021 707)"/>
              <path id="Path_21" data-name="Path 21" d="M3.618-5.31,5.8-11.3h.036L7.974-5.31ZM4.9-12.852-.108,0H1.638l1.44-3.87H8.514L9.918,0h1.89L6.786-12.852Z" transform="translate(2041 706)"/>
              <path id="Path_18" data-name="Path 18" d="M5,19H7v2H5Z" transform="translate(2030 678)"/>
              <path id="Path_19" data-name="Path 19" d="M5,19H7v2H5Z" transform="translate(2033 678)"/>
            </g>
          </g>
        </g>
      </g>
    </g>
  </g>
</svg>
