<?xml version="1.0" encoding="iso-8859-1"?>
<!-- Generator: Adobe Illustrator 19.0.0, SVG Export Plug-In . SVG Version: 6.00 Build 0)  -->
<svg version="1.1" id="Capa_1" xmlns="http://www.w3.org/2000/svg" xmlns:xlink="http://www.w3.org/1999/xlink" x="0px" y="0px"
	 viewBox="0 0 496 496" style="enable-background:new 0 0 496 496;" xml:space="preserve">
<g>
	<g>
		<path d="M305.552,278.624l-39.952-5.64l-17.6-34.64l-17.6,34.64l-39.952,5.64l28.928,27.384l-6.768,38.312L248,326.248
			l35.392,18.072l-6.768-38.312L305.552,278.624z M262.048,315.464L248,308.28l-14.048,7.176l2.672-15.16l-11.072-10.48l15.328-2.16
			l7.12-14l7.12,14l15.328,2.168l-11.072,10.48L262.048,315.464z"/>
	</g>
</g>
<g>
	<g>
		<path d="M248,216c-44.112,0-80,35.888-80,80s35.888,80,80,80s80-35.888,80-80S292.112,216,248,216z M248,360
			c-35.288,0-64-28.712-64-64c0-35.288,28.712-64,64-64c35.288,0,64,28.712,64,64C312,331.288,283.288,360,248,360z"/>
	</g>
</g>
<g>
	<g>
		<rect x="64" y="192" width="80" height="16"/>
	</g>
</g>
<g>
	<g>
		<path d="M480.912,105.712L456,95.752V64h-24V0h-80v64h-24v31.752l-24.92,9.96C293.92,109.384,288,118.128,288,128v52.136
			c-3.232,0.336-6.44,1.032-9.528,2.152C270.936,173.336,259.808,168,248,168c-11.808,0-22.936,5.336-30.472,14.288
			c-3.096-1.12-6.296-1.808-9.528-2.152V128c0-9.872-5.92-18.616-15.088-22.288L168,95.752V64h-24V0H64v64H40v31.752l-24.92,9.96
			C5.92,109.384,0,118.128,0,128v280c0,13.232,10.768,24,24,24h136.664l-29.088,64h23.32l41.768-34.808L210.584,496h19.176
			L248,441.288L266.232,496h19.176l13.92-34.808L341.104,496h23.32l-29.088-64H472c13.232,0,24-10.768,24-24V128
			C496,118.128,490.08,109.384,480.912,105.712z M368,16h48v48h-48V16z M80,16h48v48H80V16z M24,416c-4.416,0-8-3.584-8-8V128
			c0-3.288,1.976-6.208,5.024-7.432L56,106.576V80h8h80h8v26.576l34.968,13.992c3.056,1.224,5.032,4.144,5.032,7.432v53.656
			c-2.76,0.856-5.448,2.016-8,3.496c-2.968,1.712-5.624,3.824-8,6.184V160H32v176h100.136c-0.864,8.232,0.768,16.648,5.008,24
			c5.904,10.224,16.096,17.192,27.608,19.24c1.392,7.816,5.096,14.984,10.504,20.656L167.944,416H24z M133.656,240
			c-1.608,5.184-2.08,10.632-1.512,16H64v16h64.144c-3.576,4.712-6.072,10.184-7.288,16H64v16h56.856
			c1.216,5.816,3.704,11.288,7.288,16H48V176h112v37.928c-6.312,1.936-12.032,5.4-16.664,10.072H64v16H133.656z M219.68,475.664
			l-16.344-40.856l-42.448,35.376l27.76-61.08c9.184,3.784,19.504,4.008,28.88,0.616c5.216,6.2,12.176,10.608,19.88,12.768
			L219.68,475.664z M227.2,395.696l-4.016-7.112l-7.024,4.152c-7.504,4.44-16.76,4.528-24.168,0.256
			c-7.4-4.272-11.944-12.336-11.856-21.056l0.08-8.16l-8.16,0.08c-0.08,0-0.168,0-0.24,0c-8.624,0-16.576-4.52-20.816-11.856
			c-4.272-7.4-4.176-16.664,0.256-24.168l4.152-7.024l-7.104-4.008C140.72,312.512,136,304.536,136,296s4.72-16.512,12.304-20.8
			l7.112-4.016l-4.152-7.024c-4.44-7.504-4.528-16.768-0.256-24.168c4.232-7.336,12.184-11.856,20.816-11.856c0.08,0,0.168,0,0.24,0
			l8.16,0.08l-0.08-8.16c-0.088-8.72,4.464-16.784,11.856-21.056c7.408-4.272,16.664-4.176,24.168,0.256l7.016,4.16l4.016-7.112
			C231.488,188.72,239.464,184,248,184s16.512,4.72,20.8,12.304l4.016,7.112l7.024-4.152c7.504-4.44,16.768-4.528,24.168-0.256
			c7.4,4.272,11.944,12.336,11.856,21.056l-0.08,8.16l8.16-0.08c0.08,0,0.168,0,0.24,0c8.624,0,16.576,4.52,20.816,11.856
			c4.272,7.4,4.176,16.664-0.256,24.168l-4.152,7.024l7.112,4.016C355.28,279.488,360,287.464,360,296s-4.72,16.512-12.304,20.8
			l-7.112,4.016l4.152,7.024c4.44,7.504,4.528,16.768,0.256,24.168c-4.232,7.336-12.184,11.856-20.816,11.856
			c-0.08,0-0.168,0-0.24,0l-8.16-0.08l0.08,8.16c0.088,8.72-4.464,16.784-11.856,21.056c-7.392,4.272-16.656,4.176-24.168-0.256
			l-7.024-4.152l-4.008,7.104C264.512,403.28,256.536,408,248,408S231.488,403.28,227.2,395.696z M375.144,288
			c-1.216-5.816-3.704-11.288-7.288-16H432v-16h-68.136c0.568-5.368,0.088-10.816-1.512-16H432v-16h-79.336
			c-4.632-4.664-10.36-8.136-16.664-10.072V176h112v144h-80.144c3.576-4.712,6.072-10.184,7.288-16H432v-16H375.144z
			 M292.664,434.808l-16.344,40.856l-17.728-53.184c7.696-2.16,14.664-6.568,19.88-12.768c9.368,3.408,19.704,3.176,28.88-0.608
			l27.76,61.08L292.664,434.808z M480,408c0,4.416-3.584,8-8,8H328.056l-7.32-16.096c5.408-5.672,9.112-12.84,10.504-20.656
			c11.512-2.048,21.704-9.016,27.608-19.24c4.24-7.352,5.88-15.768,5.008-24H464V160H320v31.336c-2.376-2.36-5.032-4.472-8-6.184
			c-2.552-1.472-5.24-2.64-8-3.496V128c0-3.288,1.976-6.208,5.024-7.432L344,106.576V80h8h80h8v26.576l34.968,13.992
			c3.056,1.224,5.032,4.144,5.032,7.432V408z"/>
	</g>
</g>
<g>
	<g>
		<rect x="352" y="192" width="80" height="16"/>
	</g>
</g>
<g>
	<g>
		<rect x="96" y="32" width="16" height="16"/>
	</g>
</g>
<g>
	<g>
		<rect x="384" y="32" width="16" height="16"/>
	</g>
</g>
<g>
	<g>
		<rect x="368" y="120" width="16" height="16"/>
	</g>
</g>
<g>
	<g>
		<rect x="400" y="120" width="16" height="16"/>
	</g>
</g>
<g>
	<g>
		<rect x="64" y="120" width="16" height="16"/>
	</g>
</g>
<g>
	<g>
		<rect x="96" y="120" width="16" height="16"/>
	</g>
</g>
<g>
	<g>
		<rect x="128" y="120" width="16" height="16"/>
	</g>
</g>
<g>
</g>
<g>
</g>
<g>
</g>
<g>
</g>
<g>
</g>
<g>
</g>
<g>
</g>
<g>
</g>
<g>
</g>
<g>
</g>
<g>
</g>
<g>
</g>
<g>
</g>
<g>
</g>
<g>
</g>
</svg>
