<svg enable-background="new 0 0 60 60" height="512" viewBox="0 0 60 60" width="512" xmlns="http://www.w3.org/2000/svg"><path d="m55.5 60h-51c-2.481 0-4.5-2.019-4.5-4.5v-51c0-2.481 2.019-4.5 4.5-4.5h51c2.481 0 4.5 2.019 4.5 4.5v51c0 2.481-2.019 4.5-4.5 4.5zm-51-58c-1.378 0-2.5 1.122-2.5 2.5v51c0 1.378 1.122 2.5 2.5 2.5h51c1.379 0 2.5-1.122 2.5-2.5v-51c0-1.378-1.122-2.5-2.5-2.5z"/><path d="m9 10h-4c-.552 0-1-.448-1-1v-4c0-.552.448-1 1-1h4c.552 0 1 .448 1 1v4c0 .552-.448 1-1 1zm-3-2h2v-2h-2z"/><path d="m17 10h-4c-.552 0-1-.448-1-1v-4c0-.552.448-1 1-1h4c.552 0 1 .448 1 1v4c0 .552-.448 1-1 1zm-3-2h2v-2h-2z"/><path d="m25 10h-4c-.552 0-1-.448-1-1v-4c0-.552.448-1 1-1h4c.552 0 1 .448 1 1v4c0 .552-.448 1-1 1zm-3-2h2v-2h-2z"/><path d="m59 14h-58c-.552 0-1-.448-1-1v-8.5c0-2.481 2.019-4.5 4.5-4.5h51c2.481 0 4.5 2.019 4.5 4.5v8.5c0 .552-.448 1-1 1zm-57-2h56v-7.5c0-1.378-1.122-2.5-2.5-2.5h-51c-1.378 0-2.5 1.122-2.5 2.5z"/><path d="m11 56h-4c-.552 0-1-.448-1-1s.448-1 1-1h4c.552 0 1 .448 1 1s-.448 1-1 1z"/><path d="m21 56h-4c-.552 0-1-.448-1-1s.448-1 1-1h4c.552 0 1 .448 1 1s-.448 1-1 1z"/><path d="m32 56h-4c-.552 0-1-.448-1-1s.448-1 1-1h4c.552 0 1 .448 1 1s-.448 1-1 1z"/><path d="m43 56h-4c-.552 0-1-.448-1-1s.448-1 1-1h4c.552 0 1 .448 1 1s-.448 1-1 1z"/><path d="m53 56h-4c-.552 0-1-.448-1-1s.448-1 1-1h4c.552 0 1 .448 1 1s-.448 1-1 1z"/><path d="m11 52h-4c-.552 0-1-.448-1-1v-4c0-.552.448-1 1-1h4c.552 0 1 .448 1 1v4c0 .552-.448 1-1 1zm-3-2h2v-2h-2z"/><path d="m53 52h-4c-.552 0-1-.448-1-1v-4c0-.552.448-1 1-1h4c.552 0 1 .448 1 1v4c0 .552-.448 1-1 1zm-3-2h2v-2h-2z"/><path d="m43 52h-4c-.552 0-1-.448-1-1v-4c0-.552.448-1 1-1h4c.552 0 1 .448 1 1v4c0 .552-.448 1-1 1zm-3-2h2v-2h-2z"/><path d="m21 52h-4c-.552 0-1-.448-1-1v-4c0-.552.448-1 1-1h4c.552 0 1 .448 1 1v4c0 .552-.448 1-1 1zm-3-2h2v-2h-2z"/><path d="m32 52h-4c-.552 0-1-.448-1-1v-4c0-.552.448-1 1-1h4c.552 0 1 .448 1 1v4c0 .552-.448 1-1 1zm-3-2h2v-2h-2z"/><path d="m53 44h-46c-.552 0-1-.448-1-1v-16c0-.552.448-1 1-1h46c.552 0 1 .448 1 1v16c0 .552-.448 1-1 1zm-45-2h44v-14h-44z"/><path d="m27 40c-.173 0-.347-.045-.502-.135-.308-.179-.498-.509-.498-.865v-8c0-.356.19-.686.498-.865.309-.179.689-.18.998-.003l7 4c.312.178.504.509.504.868s-.192.69-.504.868l-7 4c-.154.088-.325.132-.496.132zm1-7.277v4.554l3.984-2.277z"/><path d="m14 39c-.256 0-.512-.098-.707-.293l-3-3c-.391-.391-.391-1.023 0-1.414l3-3c.39-.391 1.024-.391 1.414 0 .391.391.391 1.023 0 1.414l-2.293 2.293 2.293 2.293c.391.391.391 1.023 0 1.414-.195.195-.451.293-.707.293z"/><path d="m46 39c-.256 0-.512-.098-.707-.293-.391-.391-.391-1.023 0-1.414l2.293-2.293-2.293-2.293c-.391-.391-.391-1.023 0-1.414.39-.391 1.024-.391 1.414 0l3 3c.391.391.391 1.023 0 1.414l-3 3c-.195.195-.451.293-.707.293z"/><path d="m13 24h-6c-.552 0-1-.448-1-1v-6c0-.552.448-1 1-1h6c.552 0 1 .448 1 1v6c0 .552-.448 1-1 1zm-5-2h4v-4h-4z"/><path d="m53 24h-6c-.552 0-1-.448-1-1v-6c0-.552.448-1 1-1h6c.552 0 1 .448 1 1v6c0 .552-.448 1-1 1zm-5-2h4v-4h-4z"/><path d="m40 24h-6c-.552 0-1-.448-1-1v-6c0-.552.448-1 1-1h6c.552 0 1 .448 1 1v6c0 .552-.448 1-1 1zm-5-2h4v-4h-4z"/><path d="m26 24h-6c-.552 0-1-.448-1-1v-6c0-.552.448-1 1-1h6c.552 0 1 .448 1 1v6c0 .552-.448 1-1 1zm-5-2h4v-4h-4z"/></svg>