<?xml version="1.0" encoding="iso-8859-1"?>
<!-- Generator: Adobe Illustrator 19.0.0, SVG Export Plug-In . SVG Version: 6.00 Build 0)  -->
<svg version="1.1" id="Capa_1" xmlns="http://www.w3.org/2000/svg" xmlns:xlink="http://www.w3.org/1999/xlink" x="0px" y="0px"
	 viewBox="0 0 480 480" style="enable-background:new 0 0 480 480;" xml:space="preserve">
<g>
	<g>
		<path d="M472,216h-56v-48c0-4.418-3.582-8-8-8H248V96h56c4.418,0,8-3.582,8-8V8c0-4.418-3.582-8-8-8H176c-4.418,0-8,3.582-8,8v80
			c0,4.418,3.582,8,8,8h56v64H72c-4.418,0-8,3.582-8,8v48H8c-4.418,0-8,3.582-8,8v80c0,4.418,3.582,8,8,8h128c4.418,0,8-3.582,8-8
			v-80c0-4.418-3.582-8-8-8H80v-40h152v40h-56c-4.418,0-8,3.582-8,8v80c0,4.418,3.582,8,8,8h56v72h-56c-4.418,0-8,3.582-8,8v80
			c0,4.418,3.582,8,8,8h128c4.418,0,8-3.582,8-8v-80c0-4.418-3.582-8-8-8h-56v-72h56c4.418,0,8-3.582,8-8v-80c0-4.418-3.582-8-8-8
			h-56v-40h152v40h-56c-4.418,0-8,3.582-8,8v80c0,4.418,3.582,8,8,8h128c4.418,0,8-3.582,8-8v-80C480,219.582,476.418,216,472,216z
			 M128,232v64H16v-64H128z M296,400v64H184v-64H296z M296,232v64H184v-64H296z M184,80V16h112v64H184z M464,296H352v-64h112V296z"
			/>
	</g>
</g>
<g>
</g>
<g>
</g>
<g>
</g>
<g>
</g>
<g>
</g>
<g>
</g>
<g>
</g>
<g>
</g>
<g>
</g>
<g>
</g>
<g>
</g>
<g>
</g>
<g>
</g>
<g>
</g>
<g>
</g>
</svg>
