<svg height="512" viewBox="0 0 64 64" width="512" xmlns="http://www.w3.org/2000/svg"><g id="mail-e_mail-letter-computer-laptop" data-name="mail-e mail-letter-computer-laptop"><path d="m61.28 58.21-5.28-19.34v-27.87a3.009 3.009 0 0 0 -3-3h-3v-5a1 1 0 0 0 -1-1h-34a1 1 0 0 0 -1 1v5h-3a3.009 3.009 0 0 0 -3 3v27.87l-5.28 19.34a3 3 0 0 0 2.9 3.79h52.76a3 3 0 0 0 2.9-3.79zm-26.13-44.21 12.85-9.07v18.14zm10.7 10h-27.7l12.43-8.78.84.6a1.024 1.024 0 0 0 1.16 0l.84-.6zm0-20-13.85 9.78-13.85-9.78zm-29.85.93 12.85 9.07-12.85 9.07zm-6 6.07a1 1 0 0 1 1-1h3v15a1 1 0 0 0 1 1h34a1 1 0 0 0 1-1v-15h3a1 1 0 0 1 1 1v27h-44zm49.18 48.61a.99.99 0 0 1 -.8.39h-52.76a.99.99 0 0 1 -.8-.39 1 1 0 0 1 -.17-.87l5.11-18.74h44.48l5.11 18.74a1 1 0 0 1 -.17.87z"/><path d="m40.97 52.758a1 1 0 0 0 -.97-.758h-16a1 1 0 0 0 -.97.758l-1 4a1 1 0 0 0 .97 1.242h18a1 1 0 0 0 .97-1.242zm-16.689 3.242.5-2h14.438l.5 2z"/><path d="m27 34h10v2h-10z"/><path d="m12 42h4v2h-4z"/><path d="m18 42h4v2h-4z"/><path d="m24 42h4v2h-4z"/><path d="m36 42h4v2h-4z"/><path d="m42 42h4v2h-4z"/><path d="m48 42h4v2h-4z"/><path d="m30 42h4v2h-4z"/><path d="m12 46h4v2h-4z"/><path d="m18 46h4v2h-4z"/><path d="m24 46h4v2h-4z"/><path d="m36 46h4v2h-4z"/><path d="m42 46h4v2h-4z"/><path d="m48 46h4v2h-4z"/><path d="m30 46h4v2h-4z"/></g></svg>