<svg xmlns="http://www.w3.org/2000/svg" width="499.97" height="493.911" viewBox="0 0 499.97 493.911">
  <g id="hotel-supplier" transform="translate(6.541 3.491)">
    <path id="Path_647" data-name="Path 647" d="M175.772,336.649l-57.1-35.255,5.9-16.211-.674.268A41.124,41.124,0,0,1,67.8,251.808L59.623,178.7c-.138-1.235-.012-2.428-.039-3.647L25.528,268.663c-4.884,13.423-1.038,26.572,2.579,39.311.72,2.536,24,67.182,24,67.182L5.639,438.017a28.789,28.789,0,1,0,46.305,34.222l55.785-75.467a28.789,28.789,0,0,0,3.792-27.266l-2.382-6.318,21.229,13.106-6.925,76.23A28.8,28.8,0,0,0,149.519,483.8c.885.08,1.768.12,2.636.12A28.8,28.8,0,0,0,180.8,457.729l8.531-93.976A28.8,28.8,0,0,0,175.772,336.649Z" fill="none" stroke="#000" stroke-width="13"/>
    <path id="Path_648" data-name="Path 648" d="M141.373,169.552l2.185,19.521,18.009-7.175A49.158,49.158,0,0,0,71.3,145.418a40.915,40.915,0,0,1,70.074,24.134Z" fill="none" stroke="#000" stroke-width="8"/>
    <path id="Path_649" data-name="Path 649" d="M141.63,104.809a50.9,50.9,0,1,0-50.885-50.9A50.9,50.9,0,0,0,141.63,104.809Z" fill="none" stroke="#000" stroke-width="13"/>
    <path id="Path_650" data-name="Path 650" d="M465.333,301.173H313.146a21.6,21.6,0,0,0-21.594,21.594v60.669a21.594,21.594,0,0,0,21.594,21.594H465.334a21.6,21.6,0,0,0,21.6-21.594V322.767A21.6,21.6,0,0,0,465.333,301.173Z" fill="none" stroke="#000" stroke-width="13"/>
    <path id="Path_651" data-name="Path 651" d="M295.665,271.353H380.5a21.6,21.6,0,0,0,21.6-21.594V195.717a21.6,21.6,0,0,0-21.6-21.594H295.665a21.6,21.6,0,0,0-21.594,21.594v54.042A21.594,21.594,0,0,0,295.665,271.353Z" fill="none" stroke="#000" stroke-width="13"/>
    <path id="Path_652" data-name="Path 652" d="M445.8,427.653H256.59V239.476a16.448,16.448,0,0,0-16.452-16.452H215.4a24.623,24.623,0,0,0-31.974-32.118L129.612,212.34l-4.6-40.955a24.671,24.671,0,1,0-49.037,5.479l8.179,73.113A24.667,24.667,0,0,0,117.8,270.166l53.62-21.355a16.147,16.147,0,0,0,13.187,7.12h39.075V444.108a16.449,16.449,0,0,0,16.453,16.453h20.084a27.249,27.249,0,0,0,53.4,0H375.39a27.249,27.249,0,0,0,53.4,0h17a16.454,16.454,0,0,0,0-32.908Z" fill="none" stroke="#000" stroke-width="12"/>
  </g>
</svg>
