<svg xmlns="http://www.w3.org/2000/svg" width="311" height="308" viewBox="0 0 311 308">
  <g id="Group_9" data-name="Group 9" transform="translate(-863.5 -204.644)">
    <path id="Subtraction_1" data-name="Subtraction 1" d="M-882.5,1142.644h-259a25.835,25.835,0,0,1-10.12-2.043,25.915,25.915,0,0,1-8.265-5.572,25.915,25.915,0,0,1-5.572-8.265,25.838,25.838,0,0,1-2.043-10.12v-256a25.838,25.838,0,0,1,2.043-10.12,25.913,25.913,0,0,1,5.572-8.264,25.914,25.914,0,0,1,8.265-5.572,25.838,25.838,0,0,1,10.12-2.043h259a25.838,25.838,0,0,1,10.12,2.043,25.913,25.913,0,0,1,8.264,5.572,25.912,25.912,0,0,1,5.572,8.264,25.838,25.838,0,0,1,2.043,10.12v256a25.838,25.838,0,0,1-2.043,10.12,25.914,25.914,0,0,1-5.572,8.265,25.915,25.915,0,0,1-8.264,5.572A25.836,25.836,0,0,1-882.5,1142.644Zm-84-112a6.007,6.007,0,0,0-6,6v6a6.007,6.007,0,0,0,6,6h48a6.007,6.007,0,0,0,6-6v-6a6.007,6.007,0,0,0-6-6Zm-92.788-94.812a62.9,62.9,0,0,0-23.969,4.512,49.322,49.322,0,0,0-17.645,12.165,53.5,53.5,0,0,0-10.8,18.289,68.25,68.25,0,0,0-3.747,22.881,66.005,66.005,0,0,0,3.5,21.955,46.112,46.112,0,0,0,10.474,17.08,47.206,47.206,0,0,0,17.362,11.038,68.58,68.58,0,0,0,24.089,3.907,96.737,96.737,0,0,0,13.535-.926,91.051,91.051,0,0,0,12.165-2.538v-17a72.122,72.122,0,0,1-11.923,2.82,83.5,83.5,0,0,1-12.488.967,44.516,44.516,0,0,1-15.267-2.457,29.961,29.961,0,0,1-11.4-7.292,32.329,32.329,0,0,1-7.17-12.045,51.278,51.278,0,0,1-2.5-16.718,49.438,49.438,0,0,1,2.739-17.04,35.642,35.642,0,0,1,7.614-12.528,32.361,32.361,0,0,1,11.682-7.734,40.693,40.693,0,0,1,14.864-2.659,76.129,76.129,0,0,1,10.876.806,78.291,78.291,0,0,1,12,2.82V939.377a63.133,63.133,0,0,0-11.038-2.618A87.035,87.035,0,0,0-1059.288,935.832Zm56.788,1.812a6.007,6.007,0,0,0-6,6v98a6.007,6.007,0,0,0,6,6h11a6.007,6.007,0,0,0,6-6V1002.56a6.015,6.015,0,0,0,1,.083h50a6.007,6.007,0,0,0,6-6v-8a6.007,6.007,0,0,0-6-6h-50a6.127,6.127,0,0,0-1,.083V943.644a6.007,6.007,0,0,0-6-6Zm36-1a6.007,6.007,0,0,0-6,6v6a6.007,6.007,0,0,0,6,6h48a6.007,6.007,0,0,0,6-6v-6a6.007,6.007,0,0,0-6-6Z" transform="translate(2031 -630)" fill="#fff"/>
  </g>
</svg>
