<svg xmlns="http://www.w3.org/2000/svg" width="1214.997" height="254.33" viewBox="0 0 1214.997 254.33">
  <path id="Path_5" data-name="Path 5" d="M43.882,37.963a35.545,35.545,0,0,1-18.471-4.9A44.2,44.2,0,0,1,11.328,19.594,63.664,63.664,0,0,1,2.551-.51,87.54,87.54,0,0,1,0-25.1,170.842,170.842,0,0,1,3.164-51.638a197.876,197.876,0,0,1,7.858-28.676A194.783,194.783,0,0,1,23.37-108.072,116.808,116.808,0,0,1,40-131.646a80.661,80.661,0,0,1,20.818-16.43,51.63,51.63,0,0,1,25.1-6.225,27.884,27.884,0,0,1,14.185,3.368,27.321,27.321,0,0,1,9.389,8.878,36,36,0,0,1,5,12.45,60.969,60.969,0,0,1,1.225,14.083,74.646,74.646,0,0,1-1.939,13.063A45.57,45.57,0,0,1,109.5-91.131a24.377,24.377,0,0,1-6.735,7.96,14.825,14.825,0,0,1-9.083,2.959,10.242,10.242,0,0,1-4.694-1.633A18.169,18.169,0,0,1,84.8-85.519a24.454,24.454,0,0,1-3.98-7.144A17.324,17.324,0,0,0,89.5-100.52a50.118,50.118,0,0,0,4.8-11.736,84.221,84.221,0,0,0,2.449-15.512q.408-8.368-3.47-12.246a12.109,12.109,0,0,0-8.776-3.878q-9.593,0-20.206,10T44.6-106.847a193.292,193.292,0,0,0-15.308,39.7,212.887,212.887,0,0,0-7.246,47.964A72.208,72.208,0,0,0,23.574.2a38.569,38.569,0,0,0,5.511,13.063,22.06,22.06,0,0,0,8.062,7.348,19.927,19.927,0,0,0,8.98,2.245A30.53,30.53,0,0,0,59.6,19.8a52.707,52.707,0,0,0,11.532-7.552,67.4,67.4,0,0,0,8.98-9.287,65.964,65.964,0,0,0,5.817-8.47,6.54,6.54,0,0,1,3.062-3.266,2.829,2.829,0,0,1,2.857.306,4.586,4.586,0,0,1,1.633,2.857,7.444,7.444,0,0,1-.816,4.592,101.266,101.266,0,0,1-8.47,13.879A79.115,79.115,0,0,1,72.966,25.411a55.738,55.738,0,0,1-13.573,9.083A35.888,35.888,0,0,1,43.882,37.963ZM106.949-1.021a7.176,7.176,0,0,1-3.164,2.959,4.066,4.066,0,0,1-3.062.2A2.847,2.847,0,0,1,98.989,0a6.091,6.091,0,0,1,.816-4.082l2.755-5.511q2.143-4.286,5.1-10.307t6.429-13.062q3.47-7.042,6.633-13.369t5.817-11.328q2.653-5,3.878-7.246-2.245-2.041-3.062-2.959t-1.225-3.98a14.328,14.328,0,0,1,1.225-6.939,41.535,41.535,0,0,1,4.286-8.266,34.272,34.272,0,0,1,5.919-6.837q3.266-2.857,6.327-2.857,5.715,0,8.062,3.674a17.3,17.3,0,0,1,2.755,7.552,19.939,19.939,0,0,1-.408,6.735,19.6,19.6,0,0,1-3.062,7.348,15.613,15.613,0,0,0,1.633.918,7.741,7.741,0,0,0,3.266.51,17.681,17.681,0,0,0,4.592-.408,15.5,15.5,0,0,1,4.184-.408,9.073,9.073,0,0,1,5.715,1.735A13.985,13.985,0,0,1,174.3-64.8a21.582,21.582,0,0,1,2.143,5.511,35.982,35.982,0,0,1,.918,5.409,16.736,16.736,0,0,1-2.653,10.613q-3.266,5.511-7.96,12.042-2.857,4.082-5.715,9.185t-2.449,9.185a11.327,11.327,0,0,0,1.429,4.286q1.021,1.633,5.715,1.633a14.984,14.984,0,0,0,7.654-2.551,57.337,57.337,0,0,0,8.572-6.531,117.8,117.8,0,0,0,8.674-8.776q4.286-4.8,7.96-9.389t6.225-8.266q2.551-3.674,3.776-5.307A5.286,5.286,0,0,1,211.245-50a3.471,3.471,0,0,1,2.857,0,3.076,3.076,0,0,1,1.531,2.449q.306,1.837-1.531,4.9-1.225,2.041-4.184,6.531t-7.144,10q-4.184,5.511-9.287,11.328A105.025,105.025,0,0,1,182.773-4.184a66.146,66.146,0,0,1-11.226,7.858,22.423,22.423,0,0,1-10.715,3.062,17.1,17.1,0,0,1-8.776-2.041,18.2,18.2,0,0,1-5.613-5,19.178,19.178,0,0,1-3.062-6.531,21.054,21.054,0,0,1-.714-6.633,17.772,17.772,0,0,1,1.327-5.2q1.123-2.755,2.653-5.715t3.266-5.919q1.735-2.959,3.164-5.817,3.47-5.919,5.613-10.1a16.225,16.225,0,0,0,2.143-7.042,6.464,6.464,0,0,0-.816-3.266,2.822,2.822,0,0,0-2.653-1.429,10.084,10.084,0,0,0-1.735.1,5.192,5.192,0,0,1-1.021.1,13.823,13.823,0,0,0-1.429.1,27.205,27.205,0,0,1-2.755.1,11.034,11.034,0,0,1-4.49-.816,21.352,21.352,0,0,0-3.47-1.225q-.816,1.429-3.674,6.123t-6.633,11.021q-3.776,6.327-7.96,13.267t-7.858,12.96q-3.674,6.021-6.225,10.205T106.949-1.021Zm197.366-39.6q-2.857,4.082-7.348,10.1t-9.287,12.042q-4.8,6.021-9.389,11.021a46.452,46.452,0,0,1-7.654,7.042,21.228,21.228,0,0,1-4.694,2.041,24.485,24.485,0,0,1-5.409,1.021,18.669,18.669,0,0,1-5.2-.306A12.085,12.085,0,0,1,251.045.612a10.746,10.746,0,0,1-3.062-4.082,35.467,35.467,0,0,1-1.939-5.919,33.493,33.493,0,0,1-.714-9.185A42.621,42.621,0,0,1,234.513-6.021,48.308,48.308,0,0,1,223.287.408a43.942,43.942,0,0,1-12.246,2.653,12.1,12.1,0,0,1-6.123-1.939A15.241,15.241,0,0,1,199.407-5a28.46,28.46,0,0,1-2.857-10.817,48.939,48.939,0,0,1,1.633-15.818,75.671,75.671,0,0,1,9.083-22.655,90.621,90.621,0,0,1,13.573-17.451,60.4,60.4,0,0,1,14.491-10.919q7.144-3.674,11.838-3.266a24.783,24.783,0,0,1,8.98,3.266,9.767,9.767,0,0,1,3.776,6.021q.918,3.98-3.368,10.511a47.223,47.223,0,0,1,4.8-.816q1.939-.2,2.959-.2a4.246,4.246,0,0,1,1.633.2,4.647,4.647,0,0,1,.2,1.735,33.033,33.033,0,0,1-.612,4.8q-.612,3.47-1.837,9.389t-3.266,15.308q-.408,1.837-.714,3.368l-.612,3.062-.714,3.572-1.021,5.1a25.252,25.252,0,0,0-.1,3.98,14.755,14.755,0,0,0,.714,3.98,6.447,6.447,0,0,0,1.939,2.959A5.685,5.685,0,0,0,263.7-8.572q2.041,0,5.307-2.551a59.524,59.524,0,0,0,6.939-6.531q3.674-3.98,7.654-8.776t7.45-9.287q3.47-4.49,6.225-7.96t3.98-5.1a6.055,6.055,0,0,1,3.266-2.143,2.2,2.2,0,0,1,2.449.918,4.85,4.85,0,0,1,.306,3.674A15.313,15.313,0,0,1,304.315-40.616Zm-59.8,8.98q1.021-4.082,2.449-9.593t2.449-10.613q1.021-5.1,1.531-8.47t-.306-3.164a18.873,18.873,0,0,0-2.245.612,10.946,10.946,0,0,1-2.653.612,27.541,27.541,0,0,0-3.266.612,18.76,18.76,0,0,0,1.939-5.409,11.608,11.608,0,0,0,.1-3.368,4.848,4.848,0,0,0-.816-2.245q-2.245-1.837-7.858,2.959t-12.96,17.655a54.278,54.278,0,0,0-4.9,11.328,71.855,71.855,0,0,0-2.551,11.328,39.956,39.956,0,0,0-.306,9.287q.408,3.98,1.633,5.2a6.672,6.672,0,0,0,5.1,2.143,13.687,13.687,0,0,0,5.817-1.633,33.427,33.427,0,0,0,5.919-3.98,47.466,47.466,0,0,0,5.307-5.1,50.3,50.3,0,0,0,3.878-4.9A10.926,10.926,0,0,0,244.514-31.636Zm152.26-1.225q-1.429,2.041-4.592,5.919t-7.552,8.368q-4.388,4.49-10,9.287a93.789,93.789,0,0,1-11.94,8.674q-.816,4.694-3.062,13.369t-5.919,18.879q-3.674,10.205-8.572,20.716a129.479,129.479,0,0,1-10.919,19.186,61.2,61.2,0,0,1-13.165,14.083,24.622,24.622,0,0,1-15.1,5.409q-7.96,0-12.45-2.653a16.828,16.828,0,0,1-6.633-6.837,24.267,24.267,0,0,1-2.551-9.185,77.674,77.674,0,0,1-.2-9.695,40.131,40.131,0,0,1,3.674-14.185,79.747,79.747,0,0,1,9.695-16.328,98.2,98.2,0,0,1,15-15.716A88.354,88.354,0,0,1,332.073,3.878q5.307-2.245,9.8-4.388t8.368-4.184q1.633-6.735.306-8.98a4.166,4.166,0,0,0-3.776-2.245q-3.674,0-8.674,3.266A94.559,94.559,0,0,0,325.746-2.449a6.738,6.738,0,0,1-3.572-.51,8.865,8.865,0,0,1-2.551-1.735,8.911,8.911,0,0,1-2.041-2.449,10.849,10.849,0,0,1-1.939-6.939,7.27,7.27,0,0,1,3.164-5.511q2.857-2.245,8.47-7.246A69.674,69.674,0,0,0,338.2-39.6q1.633-2.245,3.98-5.613t4.694-7.348q2.347-3.98,4.49-8.266a56.231,56.231,0,0,0,3.368-8.164,50.268,50.268,0,0,0-11.838.2q-4.082.816-8.776,1.837-4.082,1.021-9.287,2.653a74.264,74.264,0,0,0-10.919,4.49,2.63,2.63,0,0,1-1.225-1.633,14.958,14.958,0,0,1-.612-2.857,37.186,37.186,0,0,1-.2-4.082,11.169,11.169,0,0,1,.918-4.8,9.381,9.381,0,0,1,2.347-3.164,12.219,12.219,0,0,1,3.062-1.939q1.633-.714,2.857-1.123,1.429-.408,5.613-1.123t9.491-1.327q5.307-.612,11.021-.918t10.409-.1q9.593.612,12.144,2.551t1.327,6.021q-1.429,4.082-5.511,13.777A141.137,141.137,0,0,1,353.1-38.167q-3.47,4.694-6.327,8.776a87.963,87.963,0,0,1-5.511,7.144A40.838,40.838,0,0,1,348.2-24.8a27.02,27.02,0,0,1,6.939-.918,6.05,6.05,0,0,1,6.225,4.49,34.318,34.318,0,0,1,1.735,9.8A108.293,108.293,0,0,0,377.69-22.247a129.236,129.236,0,0,0,13.777-14.7,7.308,7.308,0,0,1,3.368-2.653,2.161,2.161,0,0,1,2.347.51A3.87,3.87,0,0,1,398-36.432,6.45,6.45,0,0,1,396.773-32.86ZM345.748,11.634a25.483,25.483,0,0,1,.918-2.959q.51-1.327.918-2.755A167.038,167.038,0,0,0,328.2,18.471,101.065,101.065,0,0,0,312.99,32.452a64.067,64.067,0,0,0-10.1,15.308A43.4,43.4,0,0,0,298.8,63.884a16.926,16.926,0,0,0,1.531,8.368q1.735,3.47,6.225,3.47,4.9,0,10.511-7.042a113.488,113.488,0,0,0,11.021-17.145q5.409-10.1,10.1-21.022T345.748,11.634ZM438-75.109a25.383,25.383,0,0,1,5.2-3.164A22.633,22.633,0,0,1,447.8-79.8a12.6,12.6,0,0,1,4.49-.408q5.511.408,6.837,3.47t.306,9.8a59.818,59.818,0,0,1-2.449,8.776q-1.837,5.307-4.286,12.96t-5.2,17.451q-2.755,9.8-5.2,22.043-2.449,10-5.307,23.063-2.449,11.43-5.817,27.554t-7.246,36.942q-1.02,5.1-4.388,5.919a10.762,10.762,0,0,1-7.042-.816,18.37,18.37,0,0,1-2.653-1.837q-1.02-1.021-2.245-2.347a10.493,10.493,0,0,1-2.041-3.572q4.694-17.145,8.266-31.228t6.429-24.492q3.062-12.042,5.715-21.635,1.02-4.286,1.939-8.47t1.939-8.266a87.416,87.416,0,0,1-5.715,8.164A39.427,39.427,0,0,1,417.388,0a28.956,28.956,0,0,1-7.858,4.388,17.855,17.855,0,0,1-8.674.918q-11.021-1.429-15.614-8.164t-3.98-17.553a63.616,63.616,0,0,1,1.225-9.389q1.02-5.1,2.245-9.8t2.347-8.47q1.123-3.776,1.735-5.409a134.3,134.3,0,0,0,3.572-13.267q1.123-5.511-1.735-9.185a20.243,20.243,0,0,1,5.409-2.551q2.551-.714,4.592-1.123a24.747,24.747,0,0,1,4.49,0q5.511.816,6.429,4.082t-.714,9.8q-.816,3.47-2.653,8.878t-3.878,11.124Q402.284-40,400.651-35.208a36.059,36.059,0,0,0-1.837,6.837q-1.837,9.185-.2,14.185t7.144,5a10.482,10.482,0,0,0,5.919-2.347,39.523,39.523,0,0,0,6.633-6.225,81.469,81.469,0,0,0,6.633-8.878q3.266-5,6.021-10.1t4.9-10a61.064,61.064,0,0,0,3.164-8.776q1.429-7.552,1.837-11.838A9.618,9.618,0,0,0,438-75.109Zm129.6,113.072A51.021,51.021,0,0,1,549.748,34.9a45.421,45.421,0,0,1-14.491-8.572,41.9,41.9,0,0,1-9.9-12.96,38.237,38.237,0,0,1-3.878-16.226,49.892,49.892,0,0,1,3.572-20.41,56.322,56.322,0,0,1,10-15.92,61.813,61.813,0,0,1,14.185-11.736,94.546,94.546,0,0,1,16.328-7.858A47.437,47.437,0,0,1,557.1-64.7a44.805,44.805,0,0,1-7.042-7.756,41.334,41.334,0,0,1-4.9-8.98,25.6,25.6,0,0,1-1.837-9.389,50.887,50.887,0,0,1,5.817-25.921,67.292,67.292,0,0,1,16.022-19.9A73.027,73.027,0,0,1,587.1-149.4a68.3,68.3,0,0,1,23.778-4.49,31.4,31.4,0,0,1,13.267,2.551,27.942,27.942,0,0,1,8.98,6.327,26.366,26.366,0,0,1,5.2,8.164,26.08,26.08,0,0,1,1.939,8.062,45.483,45.483,0,0,1-1.735,13.675,63.465,63.465,0,0,1-4.9,12.552A36.29,36.29,0,0,1,627-93.376q-3.674,3.572-7.144,3.572a20.034,20.034,0,0,1-5.511-.816,37.038,37.038,0,0,1-5.715-2.041,25.632,25.632,0,0,1-6.531-4.286,29.038,29.038,0,0,0,9.389-5.817,37.017,37.017,0,0,0,6.837-8.47,38.714,38.714,0,0,0,4.082-9.695,37.04,37.04,0,0,0,1.327-9.491q-.2-6.531-3.062-10.1t-9.185-3.572a38.788,38.788,0,0,0-17.145,4.184,49.056,49.056,0,0,0-15.206,11.634,54.631,54.631,0,0,0-10.409,17.757,49.6,49.6,0,0,0-2.551,22.349,31.9,31.9,0,0,0,5.613,15.512,56.3,56.3,0,0,0,8.674,9.8q3.266-.408,6.123-.714a50.028,50.028,0,0,1,5.307-.306,20.733,20.733,0,0,1,6.939,1.225q3.47,1.225,3.47,3.47a11.257,11.257,0,0,1-.714,3.674,11.624,11.624,0,0,1-2.347,3.878,14.3,14.3,0,0,1-3.878,3.062,10.92,10.92,0,0,1-5.307,1.225,18.337,18.337,0,0,1-5.919-1.225,51.4,51.4,0,0,1-6.939-3.062,40.339,40.339,0,0,0-14.083,5.817,43.9,43.9,0,0,0-10.715,9.9,46.32,46.32,0,0,0-6.837,12.45,34.785,34.785,0,0,0-2.245,13.063,52.411,52.411,0,0,0,1.837,11.94,31.867,31.867,0,0,0,5.1,10.715A26.377,26.377,0,0,0,559.34,19.9a28.775,28.775,0,0,0,13.573,2.959,26.242,26.242,0,0,0,11.328-2.551,47.9,47.9,0,0,0,10.1-6.429,63.788,63.788,0,0,0,8.572-8.572,92.351,92.351,0,0,0,6.735-9.185q2.857-4.49,4.8-8.164t2.755-5.307a4.131,4.131,0,0,1,1.735-1.837,2.933,2.933,0,0,1,2.245-.306,2.731,2.731,0,0,1,1.735,1.531,5.519,5.519,0,0,1,0,3.674,74.049,74.049,0,0,1-6.123,16.43,77.54,77.54,0,0,1-11.532,17.042,64.577,64.577,0,0,1-16.532,13.369A41.906,41.906,0,0,1,567.606,37.963ZM634.144-3.266q8.98-37.759,14.389-60.618t8.266-34.9q3.266-14.287,4.49-19.8.612-3.878,1.021-7.552a54.269,54.269,0,0,0,.408-6.735,30.253,30.253,0,0,0-.612-6.327,15.528,15.528,0,0,1,3.572-1.633q1.939-.612,3.776-1.021,2.245-.612,4.49-1.021a23,23,0,0,1,4.082-.408,14.6,14.6,0,0,1,3.062.306,2.313,2.313,0,0,1,1.837,1.327q1.225,1.021,1.123,4.082t-.51,6.327q-.816,3.878-1.837,8.368-2.449,8.776-6.735,25.309-3.674,14.083-9.9,38.371T649.451,2.041A5.564,5.564,0,0,1,647,3.47a9.7,9.7,0,0,1-2.653.408,24.759,24.759,0,0,1-3.062-.2,12.918,12.918,0,0,1-2.857-1.225A13.8,13.8,0,0,1,635.98.306,8.447,8.447,0,0,1,634.144-3.266ZM775.382-42.453A155.961,155.961,0,0,1,761.5-25a126.388,126.388,0,0,1-16.43,15.1A90.038,90.038,0,0,1,727.316.816,42.928,42.928,0,0,1,709.661,4.9a25.587,25.587,0,0,1-9.695-2.143,27.651,27.651,0,0,1-9.491-6.633,32.328,32.328,0,0,1-6.837-11.634q-2.551-7.144-1.531-17.349a53.753,53.753,0,0,1,5.2-17.655,80.415,80.415,0,0,1,10.817-17.042,61.533,61.533,0,0,1,14.491-12.858,30.1,30.1,0,0,1,16.226-5.1q7.756,0,11.226,3.878a12.443,12.443,0,0,1,3.062,9.593,29.43,29.43,0,0,1-3.572,11.634,47.111,47.111,0,0,1-7.042,9.593,71.474,71.474,0,0,1-8.674,7.756q-4.592,3.47-8.674,6.327-4.49,3.062-8.572,5.817t-7.144,5a22.2,22.2,0,0,0,1.837,8.572,16.868,16.868,0,0,0,4.082,5.613,14.6,14.6,0,0,0,5.613,3.062,22.948,22.948,0,0,0,6.429.918q6.939,0,14.491-4.388a99.375,99.375,0,0,0,14.8-10.613,162.614,162.614,0,0,0,13.471-12.96q6.225-6.735,10.307-11.634a5.474,5.474,0,0,1,2.959-1.939,2.9,2.9,0,0,1,2.449.408,2.924,2.924,0,0,1,.918,2.449A7.678,7.678,0,0,1,775.382-42.453Zm-52.25-31.432q-2.449,0-5.817,2.449a30.325,30.325,0,0,0-6.633,7.042,61.138,61.138,0,0,0-6.123,11.226,65.731,65.731,0,0,0-4.286,15.206q2.449-1.837,5.307-3.776t5.715-4.184q8.776-6.735,12.246-11.838t3.878-8.776q.408-3.878-.816-5.613A4,4,0,0,0,723.132-73.885ZM855.8-9.389a60.338,60.338,0,0,1,.918-9.8q.918-5.511,2.347-11.328t2.857-11.328q1.429-5.511,2.449-9.8,1.225-5.307-.2-8.164a5.033,5.033,0,0,0-4.9-2.857q-1.633,0-6.429,2.857t-10.409,9.9a90.9,90.9,0,0,0-11.021,18.981Q826-18.981,822.938-.612a25.393,25.393,0,0,1-7.348,2.653q-1.837.408-3.266.612-4.082.2-5.307-1.327t.408-7.45q.816-2.857,2.959-9.185t4.184-13.777q2.041-7.45,3.572-14.9a65.608,65.608,0,0,0,1.531-12.96q0-3.878-1.327-5.307a4.9,4.9,0,0,0-3.776-1.429q-1.837,0-6.123,2.041t-9.593,7.96q-5.307,5.919-10.511,16.43T779.464-10v-.408l-.816,3.266a20.306,20.306,0,0,0-.612,3.062,20.306,20.306,0,0,1-.612,3.062L767.218,3.47a10.8,10.8,0,0,1-2.551.612,4.6,4.6,0,0,1-2.857-.51A4.474,4.474,0,0,1,759.87.612q-.612-2.245.408-6.735l12.858-53.271q.612-2.653,1.021-5.1a33.411,33.411,0,0,0,.51-4.388,11.258,11.258,0,0,0-.306-3.572,47.563,47.563,0,0,1,6.123-2.449q2.653-.816,4.286-1.225a12.436,12.436,0,0,1,3.47-.612q6.531,0,4.286,11.226-.816,3.266-2.449,9.593a107.365,107.365,0,0,1,8.266-9.287,93.1,93.1,0,0,1,8.878-7.858,44.4,44.4,0,0,1,9.083-5.511,22.233,22.233,0,0,1,9.083-2.041,8.55,8.55,0,0,1,5.817,2.041,13.625,13.625,0,0,1,3.674,5.409,24.709,24.709,0,0,1,1.531,7.96A56.309,56.309,0,0,1,836-55.72q3.266-4.286,7.246-8.674a69.533,69.533,0,0,1,8.368-7.858,48.132,48.132,0,0,1,9.083-5.715,21.6,21.6,0,0,1,9.389-2.245q5.511,0,8.47,3.266a17.918,17.918,0,0,1,4.082,8.368,36.532,36.532,0,0,1,.612,11.021,87.142,87.142,0,0,1-1.735,11.43l-6.939,27.554Q872.33-8.368,878.861-8.368q5.1,0,11.226-4.9A90.96,90.96,0,0,0,902.027-24.9q5.817-6.735,10.919-13.879t8.572-11.43a4.323,4.323,0,0,1,2.551-1.633,2.807,2.807,0,0,1,2.245.51,3.05,3.05,0,0,1,1.021,2.347,8.418,8.418,0,0,1-1.123,4.082q-4.082,7.144-10,15.818a136.871,136.871,0,0,1-12.96,16.226A78.42,78.42,0,0,1,888.25-.2a30.214,30.214,0,0,1-16.532,5.1,25.8,25.8,0,0,1-5.613-.612A14.282,14.282,0,0,1,861,2.041a11.9,11.9,0,0,1-3.776-4.388A15.251,15.251,0,0,1,855.8-9.389Zm147.361-33.064A155.961,155.961,0,0,1,989.28-25,126.388,126.388,0,0,1,972.85-9.9,90.038,90.038,0,0,1,955.093.816,42.928,42.928,0,0,1,937.438,4.9a25.587,25.587,0,0,1-9.695-2.143,27.651,27.651,0,0,1-9.491-6.633,32.328,32.328,0,0,1-6.837-11.634q-2.551-7.144-1.531-17.349a53.753,53.753,0,0,1,5.2-17.655,80.415,80.415,0,0,1,10.817-17.042A61.533,61.533,0,0,1,940.4-80.416a30.1,30.1,0,0,1,16.226-5.1q7.756,0,11.226,3.878a12.443,12.443,0,0,1,3.062,9.593,29.43,29.43,0,0,1-3.572,11.634,47.111,47.111,0,0,1-7.042,9.593,71.474,71.474,0,0,1-8.674,7.756q-4.592,3.47-8.674,6.327-4.49,3.062-8.572,5.817t-7.144,5a22.2,22.2,0,0,0,1.837,8.572,16.868,16.868,0,0,0,4.082,5.613,14.6,14.6,0,0,0,5.613,3.062,22.948,22.948,0,0,0,6.429.918q6.939,0,14.491-4.388a99.375,99.375,0,0,0,14.8-10.613,162.614,162.614,0,0,0,13.471-12.96q6.225-6.735,10.307-11.634a5.474,5.474,0,0,1,2.959-1.939,2.9,2.9,0,0,1,2.449.408,2.924,2.924,0,0,1,.918,2.449A7.678,7.678,0,0,1,1003.159-42.453Zm-52.25-31.432q-2.449,0-5.817,2.449a30.325,30.325,0,0,0-6.633,7.042,61.138,61.138,0,0,0-6.123,11.226,65.731,65.731,0,0,0-4.286,15.206q2.449-1.837,5.307-3.776t5.715-4.184q8.776-6.735,12.246-11.838t3.878-8.776q.408-3.878-.816-5.613A4,4,0,0,0,950.909-73.885ZM1049.082,5.1a17.409,17.409,0,0,1-8.062-1.735,14.892,14.892,0,0,1-5.409-4.592,15.5,15.5,0,0,1-2.653-6.633,20.475,20.475,0,0,1,.408-8.062q.612-2.857,2.041-7.654t2.959-10.409q1.531-5.613,2.857-11.226a72.813,72.813,0,0,0,1.735-10.205,21.749,21.749,0,0,0-.408-7.552q-.816-2.959-3.47-2.959a12.818,12.818,0,0,0-6.735,2.143,37.421,37.421,0,0,0-7.042,5.817,84.786,84.786,0,0,0-7.144,8.47q-3.572,4.8-7.042,9.9-1.837,6.939-3.062,12.144t-2.143,9.389q-.918,4.184-1.735,7.348t-1.429,6.021q-.612,2.041-3.674,3.98a32.181,32.181,0,0,1-6.531,3.164,18.529,18.529,0,0,1-6.021,1.225q-2.551,0-2.143-1.837.2-1.225,1.327-5.511t2.653-10.1q1.531-5.817,3.164-12.348t3.062-12.45q1.021-4.694,2.245-10.409,1.021-4.9,2.551-11.43t3.572-14.287a13.016,13.016,0,0,1,2.959-1.939,17.5,17.5,0,0,1,3.164-1.123,14.358,14.358,0,0,1,3.47-.816,26.3,26.3,0,0,1,3.266.2,16.957,16.957,0,0,1,2.959.714,8.427,8.427,0,0,1,2.755,1.531q-.612,1.429-1.429,3.98t-1.633,5.409q-.816,3.266-2.041,6.735a93.335,93.335,0,0,1,6.021-7.45,53.7,53.7,0,0,1,7.348-6.837,39.6,39.6,0,0,1,8.47-5,22.959,22.959,0,0,1,9.185-1.939,11.439,11.439,0,0,1,6.939,2.245,14.882,14.882,0,0,1,4.8,6.225,27.529,27.529,0,0,1,2.041,9.491,37.037,37.037,0,0,1-1.531,12.042l-2.245,8.98q-1.02,4.286-2.551,10.1t-3.776,12.756a22.16,22.16,0,0,0-.918,7.756q.306,3.266,3.98,3.266t9.287-4.49A97.494,97.494,0,0,0,1074.8-23.676q5.715-6.327,10.817-12.96t7.756-10.715a10.353,10.353,0,0,1,3.47-3.47,2.513,2.513,0,0,1,2.551-.2q.918.612.918,2.755a12.8,12.8,0,0,1-1.633,5.409q-1.429,2.857-4.388,7.552t-7.042,10q-4.082,5.307-8.776,10.715a95.1,95.1,0,0,1-9.8,9.8,60.133,60.133,0,0,1-10.1,7.144A19.739,19.739,0,0,1,1049.082,5.1Zm111.235-56.74a3.451,3.451,0,0,1,2.143-1.531,2.494,2.494,0,0,1,2.143.306,2.639,2.639,0,0,1,.918,2.041,8.128,8.128,0,0,1-1.123,3.878,132.366,132.366,0,0,1-10.715,16.736A189.222,189.222,0,0,1,1139.7-13.369a105.21,105.21,0,0,1-14.287,12.96q-6.94,5.1-11.634,5.1a21.761,21.761,0,0,1-11.226-2.653,21.065,21.065,0,0,1-7.042-6.531,25.24,25.24,0,0,1-3.572-8.47,26.368,26.368,0,0,1-.612-8.47q.2-3.266,1.429-11.736t3.266-19.594q2.041-11.124,4.592-23.88t5.409-24.594l-6.939.816a54.537,54.537,0,0,1-6.327.408,48.35,48.35,0,0,1-12.348-1.531,47.836,47.836,0,0,1-8.674-2.959,2.182,2.182,0,0,1-1.429-2.347,7.253,7.253,0,0,1,1.225-3.062,10.491,10.491,0,0,1,2.551-2.653,4.841,4.841,0,0,1,2.755-1.123q3.878.408,8.368.714a92.429,92.429,0,0,0,9.8.1q3.878-.2,7.45-.612t7.042-1.021q2.653-9.8,5.2-17.042t4.592-10.1a4.926,4.926,0,0,1,2.755-1.735,23.847,23.847,0,0,1,4.592-1.021,18.063,18.063,0,0,1,4.694,0,4.937,4.937,0,0,1,3.266,1.531q1.02,1.633.816,8.368a109.97,109.97,0,0,1-2.245,17.145,111.948,111.948,0,0,1,15.206.918q6.633.918,11.328,2.041a58.614,58.614,0,0,1,7.552,2.245q2.857,1.123,4.286,1.531a2.035,2.035,0,0,1,1.531,2.041,7.552,7.552,0,0,1-.612,3.368,7.008,7.008,0,0,1-2.347,2.959,4.419,4.419,0,0,1-3.674.816,34.7,34.7,0,0,1-4.592-.816,51.927,51.927,0,0,0-6.123-1.021q-3.572-.408-8.47-.816t-11.43-.408q-1.225,0-2.755.1t-3.164.1q-.816,3.266-1.531,6.429a59.112,59.112,0,0,1-1.939,6.633q-2.653,8.164-6.123,17.757-3.062,8.368-7.348,19.186t-9.593,23.063q-1.225,8.776.306,13.369a15.482,15.482,0,0,0,3.776,6.633,10.675,10.675,0,0,0,6.531,2.449q3.062.408,7.45-2.143a53.745,53.745,0,0,0,9.083-6.837q4.694-4.286,9.491-9.389t8.878-10q4.082-4.9,7.144-8.878T1160.317-51.638Zm16.532,44.7a5.6,5.6,0,0,0,3.164.816,9.925,9.925,0,0,0,3.878-.816,14.814,14.814,0,0,0,3.674-2.245,8.349,8.349,0,0,0,2.551-3.674q.816-2.245,0-6.429a60.817,60.817,0,0,0-2.551-8.98q-1.735-4.8-3.776-9.695t-3.47-8.98q-1.225-3.062-2.041-5.715-.816-2.245-1.531-4.388a25.978,25.978,0,0,0-1.123-2.959q-1.02,1.633-3.572,5.307t-5.511,7.654q-2.96,3.98-5.613,7.348t-3.674,4.592a6.1,6.1,0,0,1-3.164,2.143,2.788,2.788,0,0,1-2.551-.612,3.7,3.7,0,0,1-1.123-2.653,7.208,7.208,0,0,1,1.531-4.184q1.225-1.633,3.674-5.2t4.9-7.348q2.449-3.776,4.49-6.735a25.532,25.532,0,0,0,2.245-3.572q.408-1.633-1.123-4.286a7.542,7.542,0,0,1-.51-6.123,21.321,21.321,0,0,1,3.674-6.633,37.643,37.643,0,0,1,6.735-6.837,29.721,29.721,0,0,1,7.96-4.592,8.88,8.88,0,0,1,7.348.1,17.579,17.579,0,0,1,4.286,3.572,4.611,4.611,0,0,1,1.225,3.98q-.408,1.021-1.225,2.653a33.661,33.661,0,0,1-2.449,3.98q-1.633,2.347-4.694,6.021a57.755,57.755,0,0,0,1.735,8.572q1.123,3.878,2.143,6.735a55.354,55.354,0,0,0,2.653,6.327q1.837,3.674,3.878,7.552t3.674,7.654a71.926,71.926,0,0,1,2.653,7.042,11.8,11.8,0,0,1,.612,5.511,25.718,25.718,0,0,1-3.572,8.368,54.819,54.819,0,0,1-7.348,9.491,45.164,45.164,0,0,1-10,7.858,23.006,23.006,0,0,1-11.736,3.266,14.7,14.7,0,0,1-8.266-2.653,28.115,28.115,0,0,1-6.735-6.225,28.034,28.034,0,0,1-4.082-7.042q-1.327-3.47-.306-5.307a29.682,29.682,0,0,1,2.245-3.878,21.32,21.32,0,0,1,3.062-3.266q.816-.612,2.041-1.429a14.847,14.847,0,0,1,2.857-1.225l4.286-1.429a95.254,95.254,0,0,0,3.674,9.9q1.633,3.572,2.653,5.613A10.386,10.386,0,0,0,1176.85-6.939Z" transform="translate(4.55 158.801)" fill="#fafafa" stroke="#fff" stroke-width="9"/>
</svg>
