<svg height="512pt" viewBox="0 -11 512.02202 512" width="512pt" xmlns="http://www.w3.org/2000/svg"><path d="m256 63.945312c-42.414062 0-76.800781 34.382813-76.800781 76.800782 0 42.414062 34.386719 76.796875 76.800781 76.796875s76.800781-34.382813 76.800781-76.796875c-.046875-42.398438-34.40625-76.753906-76.800781-76.800782zm0 136.53125c-32.988281 0-59.734375-26.742187-59.734375-59.730468 0-32.992188 26.746094-59.734375 59.734375-59.734375s59.734375 26.742187 59.734375 59.734375c-.039063 32.972656-26.761719 59.695312-59.734375 59.730468zm0 0"/><path d="m256 98.078125c-23.5625 0-42.667969 19.101563-42.667969 42.667969 0 23.5625 19.105469 42.664062 42.667969 42.664062s42.667969-19.101562 42.667969-42.664062c-.027344-23.554688-19.117188-42.640625-42.667969-42.667969zm0 68.265625c-14.136719 0-25.601562-11.460938-25.601562-25.597656 0-14.140625 11.464843-25.601563 25.601562-25.601563s25.601562 11.460938 25.601562 25.601563c-.015624 14.132812-11.46875 25.582031-25.601562 25.597656zm0 0"/><path d="m384 183.410156c9.421875-.007812 17.054688-7.644531 17.066406-17.066406v-51.199219c-.011718-9.421875-7.644531-17.054687-17.066406-17.066406h-25.609375c-3.636719-8.828125-8.429687-17.132813-14.25-24.703125l12.75-22.109375c2.296875-3.914063 2.9375-8.585937 1.777344-12.976563-1.160157-4.386718-4.023438-8.132812-7.953125-10.40625l-44.367188-25.601562-.085937-.042969c-8.152344-4.632812-18.515625-1.804687-23.183594 6.328125l-12.78125 22.15625c-9.496094-1.207031-19.105469-1.207031-28.601563 0l-12.730468-22.074218c-4.683594-8.1875-15.113282-11.035157-23.3125-6.367188l-44.390625 25.617188c-3.914063 2.269531-6.765625 6.007812-7.925781 10.382812-1.160157 4.375-.527344 9.03125 1.75 12.941406l12.773437 22.152344c-5.820313 7.570312-10.613281 15.875-14.25 24.703125h-25.609375c-9.421875.011719-17.054688 7.644531-17.066406 17.066406v51.199219c.011718 9.421875 7.644531 17.058594 17.066406 17.066406h25.609375c3.636719 8.828125 8.429687 17.136719 14.25 24.707032l-12.75 22.105468c-2.296875 3.917969-2.9375 8.585938-1.777344 12.976563 1.160157 4.390625 4.023438 8.132812 7.953125 10.40625l44.449219 25.644531c2.566406 1.449219 5.46875 2.210938 8.417969 2.207031 6.101562.035157 11.746094-3.230469 14.761718-8.535156l12.78125-22.160156c9.496094 1.210937 19.105469 1.210937 28.601563 0l12.734375 22.082031c4.6875 8.1875 15.117188 11.03125 23.316406 6.359375l44.390625-25.613281c3.914063-2.273438 6.765625-6.007813 7.925781-10.382813 1.160157-4.375.527344-9.035156-1.75-12.945312l-12.773437-22.144531c5.820313-7.570313 10.613281-15.878907 14.25-24.707032zm-39.550781-11.328125c-3.789063 10.878907-9.59375 20.941407-17.105469 29.671875-2.355469 2.746094-2.71875 6.679688-.910156 9.8125l15.753906 27.257813-44.316406 25.574219-15.703125-27.222657c-1.800781-3.128906-5.382813-4.785156-8.933594-4.128906-11.394531 2.078125-23.070313 2.078125-34.464844 0-3.554687-.660156-7.136719.996094-8.933593 4.128906l-15.648438 27.25-44.320312-25.632812 15.699218-27.222657c1.808594-3.132812 1.445313-7.0625-.90625-9.8125-7.515625-8.726562-13.320312-18.792968-17.109375-29.671874-1.1875-3.433594-4.425781-5.742188-8.0625-5.742188h-31.488281v-51.199219h31.488281c3.632813 0 6.867188-2.304687 8.058594-5.738281 3.792969-10.875 9.597656-20.941406 17.113281-29.667969 2.351563-2.75 2.71875-6.683593.910156-9.816406l-15.757812-27.257813 44.316406-25.574218 15.703125 27.222656c1.792969 3.136719 5.378907 4.796875 8.933594 4.128906 11.394531-2.074218 23.070313-2.074218 34.464844 0 3.550781.660156 7.132812-.992187 8.9375-4.125l15.644531-27.21875h.015625l.050781.011719 44.25 25.597656-15.699218 27.222657c-1.808594 3.132812-1.445313 7.066406.90625 9.8125 7.515624 8.730468 13.320312 18.796874 17.109374 29.671874 1.195313 3.433594 4.433594 5.734376 8.066407 5.730469h31.488281v51.199219h-31.488281c-3.636719 0-6.871094 2.304688-8.0625 5.738281zm0 0"/><path d="m25.601562 490.613281h42.664063c7.242187-.019531 14.132813-3.125 18.945313-8.535156h214.015624c12.519532.003906 24.800782-3.441406 35.492188-9.953125l159.957031-97.367188c7.683594-4.679687 13.035157-12.382812 14.742188-21.214843 1.703125-8.558594-.230469-17.4375-5.339844-24.507813-.152344-.253906-.316406-.496094-.492187-.730468-8.234376-11.003907-22.59375-15.488282-35.625-11.128907l-157.953126 52.652344c-2.613281.867187-5.351562 1.3125-8.105468 1.3125h-4.902344c4.054688-11.109375 2.890625-23.453125-3.175781-33.601563l-.765625-1.273437c-9.296875-15.382813-25.9375-24.800781-43.910156-24.855469h-44.628907c-15.742187-.019531-31.011719-5.375-43.316406-15.195312-15.335937-12.234375-34.367187-18.910156-53.988281-18.9375h-16.921875c-3.589844-10.199219-13.214844-17.03125-24.027344-17.066406h-42.664063c-14.132812.015624-25.585937 11.46875-25.601562 25.601562v179.199219c.015625 14.132812 11.46875 25.585937 25.601562 25.601562zm126.933594-181.070312c15.332032 12.234375 34.363282 18.910156 53.980469 18.933593h44.628906c11.980469.035157 23.078125 6.3125 29.269531 16.566407l.769532 1.273437c4.65625 7.765625 4.15625 17.578125-1.269532 24.828125h-51.863281c-16.851562-.011719-33.324219 4.976563-47.335937 14.335938l-6.25 4.167969c-2.566406 1.675781-4.035156 4.605468-3.847656 7.664062.1875 3.0625 2.003906 5.789062 4.757812 7.140625s6.023438 1.117187 8.558594-.605469l6.25-4.167968c11.207031-7.488282 24.386718-11.480469 37.867187-11.46875h75.847657c4.589843 0 9.148437-.738282 13.5-2.1875l157.960937-52.648438c5.78125-1.992188 12.191406-.203125 16.109375 4.492188.148438.25.316406.488281.488281.726562 2.511719 3.351562 3.492188 7.605469 2.703125 11.714844-.789062 4.109375-3.277344 7.695312-6.851562 9.875l-159.957032 97.367187c-8.023437 4.878907-17.234374 7.460938-26.625 7.460938h-207.359374v-170.667969h15.347656c15.742187.019531 31.015625 5.378906 43.320312 15.199219zm-135.46875-23.730469c.003906-4.710938 3.824219-8.53125 8.535156-8.535156h42.664063c4.710937.003906 8.53125 3.824218 8.535156 8.535156v179.199219c-.003906 4.710937-3.824219 8.527343-8.535156 8.53125h-42.664063c-4.710937-.003907-8.53125-3.820313-8.535156-8.53125zm0 0"/></svg>