<?xml version="1.0" encoding="iso-8859-1"?>
<!-- Generator: Adobe Illustrator 19.0.0, SVG Export Plug-In . SVG Version: 6.00 Build 0)  -->
<svg version="1.1" id="Capa_1" xmlns="http://www.w3.org/2000/svg" xmlns:xlink="http://www.w3.org/1999/xlink" x="0px" y="0px"
	 viewBox="0 0 480 480" style="enable-background:new 0 0 480 480;" xml:space="preserve">
<g>
	<g>
		<g>
			<path d="M457.328,205.44c-6.878-5.06-12.482-11.653-16.368-19.256c-0.537-8.878,1.034-17.757,4.584-25.912
				c4.48-14.032,9.112-28.528,2.32-40.272c-6.888-11.88-21.904-15.144-36.424-18.28c-8.699-0.977-17.045-3.992-24.36-8.8
				c-4.789-7.315-7.787-15.655-8.752-24.344c-3.136-14.528-6.376-29.552-18.288-36.44c-11.736-6.792-26.232-2.16-40.272,2.32
				c-8.159,3.547-17.04,5.117-25.92,4.584c-7.599-3.888-14.189-9.492-19.248-16.368C264.512,11.52,254.08,0,240,0
				s-24.512,11.52-34.56,22.672c-5.06,6.878-11.653,12.482-19.256,16.368c-8.878,0.531-17.755-1.039-25.912-4.584
				c-14.016-4.472-28.52-9.12-40.272-2.32c-11.88,6.888-15.144,21.904-18.28,36.424c-0.977,8.699-3.992,17.045-8.8,24.36
				c-7.315,4.789-15.655,7.787-24.344,8.752c-14.528,3.136-29.552,6.376-36.44,18.288c-6.792,11.736-2.16,26.24,2.32,40.272
				c3.552,8.157,5.123,17.039,4.584,25.92c-3.888,7.599-9.492,14.189-16.368,19.248C11.52,215.488,0,225.92,0,240
				s11.52,24.512,22.672,34.6c6.878,5.06,12.482,11.653,16.368,19.256c0.537,8.878-1.034,17.757-4.584,25.912
				c-4.48,14.032-9.112,28.528-2.32,40.272c6.888,11.88,21.904,15.144,36.424,18.28c8.696,0.965,17.041,3.966,24.36,8.76
				c4.789,7.315,7.787,15.655,8.752,24.344c3.136,14.528,6.376,29.552,18.288,36.44c11.736,6.792,26.232,2.16,40.272-2.32
				c8.159-3.547,17.04-5.117,25.92-4.584c7.599,3.888,14.189,9.492,19.248,16.368C215.488,468.48,225.92,480,240,480
				s24.512-11.52,34.6-22.672c5.06-6.878,11.653-12.482,19.256-16.368c8.878-0.531,17.755,1.039,25.912,4.584
				c14.024,4.48,28.512,9.12,40.272,2.32c11.88-6.888,15.144-21.904,18.28-36.424c0.965-8.696,3.966-17.041,8.76-24.36
				c7.315-4.789,15.655-7.787,24.344-8.752c14.528-3.136,29.552-6.376,36.44-18.288c6.792-11.736,2.16-26.24-2.32-40.272
				c-3.552-8.157-5.123-17.039-4.584-25.92c3.888-7.599,9.492-14.189,16.368-19.248C468.48,264.512,480,254.08,480,240
				S468.48,215.488,457.328,205.44z M446.592,262.744c-9.378,6.88-16.675,16.215-21.088,26.976
				c-1.645,11.857,0.016,23.939,4.8,34.912c3.424,10.712,6.92,21.792,3.72,27.392c-3.352,5.784-14.856,8.264-25.976,10.664
				c-12.048,2.6-24.504,5.288-32.28,13.08c-7.256,9.353-11.786,20.53-13.088,32.296c-2.4,11.112-4.88,22.616-10.648,25.952
				c-5.624,3.24-16.696-0.296-27.4-3.712c-10.973-4.775-23.049-6.435-34.904-4.8c-10.766,4.409-20.104,11.707-26.984,21.088
				C254.992,455.152,246.984,464,240,464s-14.992-8.848-22.744-17.408c-6.88-9.378-16.215-16.675-26.976-21.088
				c-2.649-0.686-5.376-1.025-8.112-1.008l0,0c-9.171,0.581-18.204,2.528-26.8,5.776c-10.736,3.424-21.792,6.92-27.392,3.72
				c-5.784-3.352-8.264-14.856-10.664-25.976c-2.6-12.048-5.288-24.504-13.08-32.28c-9.353-7.256-20.53-11.786-32.296-13.088
				c-11.112-2.4-22.616-4.88-25.952-10.648c-3.24-5.6,0.288-16.656,3.712-27.368c4.783-10.971,6.444-23.049,4.8-34.904
				c-4.409-10.766-11.707-20.104-21.088-26.984C24.848,254.992,16,246.984,16,240s8.848-14.992,17.44-22.744
				c9.378-6.88,16.675-16.215,21.088-26.976c1.645-11.857-0.016-23.939-4.8-34.912c-3.424-10.712-6.92-21.792-3.72-27.392
				c3.352-5.784,14.856-8.264,25.976-10.664c12.048-2.6,24.504-5.288,32.28-13.08c7.256-9.353,11.786-20.53,13.088-32.296
				c2.4-11.112,4.88-22.616,10.648-25.952c5.6-3.264,16.656,0.288,27.368,3.712c11.848,3.792,24.12,7.696,34.904,4.8
				c10.766-4.409,20.104-11.707,26.984-21.088C225.008,24.848,233.016,16,240,16c6.984,0,14.992,8.848,22.744,17.408
				c6.88,9.378,16.215,16.675,26.976,21.088c11.857,1.64,23.937-0.021,34.912-4.8c10.728-3.424,21.792-6.92,27.392-3.72
				c5.784,3.352,8.264,14.856,10.664,25.976c2.6,12.048,5.288,24.504,13.08,32.28c9.353,7.256,20.53,11.786,32.296,13.088
				c11.112,2.4,22.616,4.88,25.952,10.648c3.24,5.608-0.288,16.688-3.712,27.4c-4.783,10.971-6.444,23.049-4.8,34.904
				c4.409,10.766,11.707,20.104,21.088,26.984C455.152,225.008,464,233.016,464,240C464,246.984,455.152,254.992,446.592,262.744z"
				/>
			<path d="M240,96c4.418,0,8-3.582,8-8V72c0-4.418-3.582-8-8-8s-8,3.582-8,8v16C232,92.418,235.582,96,240,96z"/>
			<path d="M192.928,95.248c0.937,3.494,4.102,5.925,7.72,5.928c0.705,0.004,1.408-0.087,2.088-0.272
				c4.264-1.144,6.796-5.526,5.656-9.792l-4.144-15.456c-0.034-0.14-0.071-0.279-0.112-0.417c-1.26-4.235-5.714-6.647-9.949-5.387
				c-4.235,1.26-6.647,5.714-5.387,9.949L192.928,95.248z"/>
			<path d="M162.92,90.504c-0.017-0.031-0.035-0.061-0.053-0.092c-2.234-3.812-7.136-5.09-10.947-2.856
				c-3.812,2.234-5.09,7.136-2.856,10.947l8,13.864c1.43,2.478,4.075,4.003,6.936,4c1.402-0.001,2.778-0.371,3.992-1.072
				c3.826-2.209,5.137-7.102,2.928-10.928L162.92,90.504z"/>
			<path d="M126.864,138.176c1.5,1.5,3.534,2.344,5.656,2.344c2.121,0,4.154-0.843,5.654-2.342
				c3.125-3.124,3.125-8.189,0.002-11.314l-11.32-11.32c-0.064-0.067-0.13-0.132-0.197-0.197c-3.178-3.069-8.243-2.981-11.312,0.197
				c-3.069,3.178-2.981,8.243,0.197,11.312L126.864,138.176z"/>
			<path d="M126.864,341.824l-11.32,11.32c-1.499,1.5-2.342,3.534-2.342,5.654c-0.001,4.418,3.58,8.001,7.998,8.002
				c2.122,0,4.156-0.844,5.656-2.344l11.32-11.32c2.994-3.1,2.994-8.015,0-11.116C135.107,338.842,130.042,338.754,126.864,341.824z
				"/>
			<path d="M168.027,364.776c-3.812-2.234-8.713-0.956-10.947,2.856l-8,13.864c-0.701,1.214-1.07,2.59-1.072,3.992
				c-0.005,4.418,3.573,8.004,7.992,8.008c2.861,0.003,5.506-1.522,6.936-4l8-13.864C173.1,371.827,171.803,366.99,168.027,364.776z
				"/>
			<path d="M202.751,379.139c-4.263-1.163-8.661,1.351-9.823,5.613l-4.136,15.448c-0.181,0.676-0.273,1.373-0.273,2.073
				c0.001,4.418,3.583,8,8.001,7.999c3.618-0.003,6.783-2.434,7.72-5.928l4.144-15.456
				C209.498,384.643,206.985,380.294,202.751,379.139z"/>
			<path d="M240,384c-4.418,0-8,3.582-8,8v16c0,4.418,3.582,8,8,8s8-3.582,8-8v-16C248,387.582,244.418,384,240,384z"/>
			<path d="M287.072,384.752c-1.155-4.234-5.504-6.747-9.749-5.633c-4.273,1.122-6.829,5.495-5.707,9.769l4.144,15.456
				c0.937,3.494,4.102,5.925,7.72,5.928c0.7,0,1.397-0.092,2.073-0.273c4.268-1.144,6.799-5.531,5.655-9.799L287.072,384.752z"/>
			<polygon points="283.48,410.272 283.48,410.272 283.48,410.272 			"/>
			<path d="M322.92,367.632c-0.018-0.031-0.036-0.062-0.054-0.093c-2.235-3.811-7.136-5.089-10.948-2.854s-5.089,7.136-2.854,10.948
				l8,13.864c1.43,2.478,4.075,4.003,6.936,4c1.401-0.001,2.778-0.371,3.992-1.072c3.826-2.209,5.137-7.102,2.928-10.928
				L322.92,367.632z"/>
			<path d="M353.136,341.824c-3.1-2.995-8.016-2.995-11.116,0c-3.178,3.07-3.266,8.134-0.196,11.312l11.32,11.32
				c1.5,1.5,3.534,2.344,5.656,2.344c2.121,0,4.155-0.843,5.654-2.342c3.125-3.124,3.125-8.189,0.002-11.314L353.136,341.824z"/>
			<path d="M347.48,140.52L347.48,140.52c2.122,0,4.156-0.844,5.656-2.344l11.32-11.32c0.067-0.064,0.132-0.13,0.196-0.196
				c3.07-3.178,2.982-8.242-0.196-11.312c-3.178-3.069-8.243-2.982-11.312,0.196l-11.32,11.32c-1.499,1.5-2.342,3.534-2.342,5.654
				C339.481,136.937,343.062,140.519,347.48,140.52z"/>
			<path d="M316,116.368c2.861,0.003,5.506-1.522,6.936-4l8-13.864c0.018-0.031,0.036-0.062,0.054-0.093
				c2.183-3.841,0.84-8.725-3.002-10.908c-3.841-2.183-8.725-0.839-10.908,3.002l-8,13.864c-0.701,1.214-1.07,2.59-1.072,3.992
				C308.004,112.778,311.582,116.363,316,116.368z"/>
			<path d="M277.272,100.904c0.678,0.184,1.378,0.276,2.08,0.272l0,0c3.618-0.003,6.783-2.434,7.72-5.928l4.136-15.448
				c0.041-0.138,0.078-0.277,0.112-0.417c1.029-4.297-1.62-8.614-5.917-9.643s-8.614,1.62-9.643,5.917l-4.144,15.456
				C270.476,95.378,273.008,99.76,277.272,100.904z"/>
			<path d="M264,288h-56v-40h40c4.418,0,8-3.582,8-8s-3.582-8-8-8h-40v-40h56c4.418,0,8-3.582,8-8s-3.582-8-8-8h-64
				c-4.418,0-8,3.582-8,8v112c0,4.418,3.582,8,8,8h64c4.418,0,8-3.582,8-8S268.418,288,264,288z"/>
			<path d="M153.912,300.992c0.555,0.668,1.217,1.238,1.96,1.688c0.256,0.189,0.523,0.362,0.8,0.52
				c1.037,0.509,2.173,0.782,3.328,0.8c0.954-0.019,1.897-0.209,2.784-0.56c0.301-0.131,0.595-0.277,0.88-0.44
				c0.336-0.143,0.662-0.309,0.976-0.496c0.176-0.12,0.264-0.312,0.424-0.456c0.425-0.362,0.809-0.769,1.144-1.216
				c0.646-0.754,1.103-1.651,1.336-2.616c0.159-0.521,0.267-1.057,0.32-1.6c0-0.224,0.128-0.416,0.128-0.64V184
				c0-4.415-3.577-7.996-7.992-8v0c-4.418,0-8,3.582-8,8v87.04l-65.496-91.688c-0.12-0.176-0.312-0.264-0.456-0.424
				c-0.361-0.425-0.769-0.809-1.216-1.144c-0.378-0.303-0.782-0.57-1.208-0.8c-0.448-0.215-0.913-0.389-1.392-0.52
				c-0.52-0.166-1.056-0.273-1.6-0.32c-0.216,0-0.4-0.128-0.624-0.128c-0.27,0.04-0.537,0.096-0.8,0.168
				c-0.543,0.046-1.08,0.15-1.6,0.312c-0.52,0.173-1.021,0.398-1.496,0.672c-0.256,0.102-0.507,0.216-0.752,0.344
				c-0.176,0.12-0.264,0.312-0.424,0.456c-0.425,0.361-0.809,0.769-1.144,1.216c-0.303,0.375-0.571,0.776-0.8,1.2
				c-0.222,0.453-0.399,0.928-0.528,1.416c-0.16,0.521-0.267,1.057-0.32,1.6c0,0.224-0.128,0.416-0.128,0.64V296
				c0,4.418,3.582,8,8,8s8-3.582,8-8v-87.04l65.496,91.688C153.616,300.8,153.792,300.856,153.912,300.992z"/>
			<path d="M401.703,176.181c-0.008-0.002-0.016-0.003-0.023-0.005l0,0c-4.32-0.929-8.574,1.82-9.503,6.139
				c0,0.002-0.001,0.003-0.001,0.005l-17.856,83.344l-22.736-68.192c-1.38-4.197-5.901-6.482-10.098-5.102
				c-2.415,0.794-4.308,2.687-5.102,5.102l-22.704,68.192l-17.856-83.344c-0.928-4.321-5.183-7.072-9.504-6.144
				c-4.321,0.928-7.072,5.183-6.144,9.504l24,112c0.758,3.523,3.778,6.104,7.376,6.304c3.583,0.163,6.844-2.06,8-5.456L344,225.296
				l24.416,73.232c1.088,3.266,4.142,5.469,7.584,5.472h0.448c3.598-0.2,6.618-2.781,7.376-6.304l24-112
				C408.761,181.378,406.021,177.118,401.703,176.181z"/>
		</g>
	</g>
</g>
<g>
</g>
<g>
</g>
<g>
</g>
<g>
</g>
<g>
</g>
<g>
</g>
<g>
</g>
<g>
</g>
<g>
</g>
<g>
</g>
<g>
</g>
<g>
</g>
<g>
</g>
<g>
</g>
<g>
</g>
</svg>
