<?xml version="1.0" encoding="iso-8859-1"?>
<!-- Generator: Adobe Illustrator 19.0.0, SVG Export Plug-In . SVG Version: 6.00 Build 0)  -->
<svg version="1.1" id="Capa_1" xmlns="http://www.w3.org/2000/svg" xmlns:xlink="http://www.w3.org/1999/xlink" x="0px" y="0px"
	 viewBox="0 0 512 512" style="enable-background:new 0 0 512 512;" xml:space="preserve">
<circle style="fill:#A2DBEB;" cx="256" cy="256" r="256"/>
<path style="fill:#525353;" d="M423.424,449.673c-14.182,12.255-29.714,22.989-46.37,31.932c-4.864,2.628-9.83,5.102-14.899,7.406
	C329.814,503.773,293.871,512,256,512s-73.814-8.226-106.154-22.989c-5.052-2.304-10.017-4.762-14.899-7.389
	c-16.64-8.942-32.188-19.694-46.37-31.949c41.796-44.766,101.341-72.755,167.424-72.755
	C322.082,376.918,381.628,404.906,423.424,449.673z"/>
<path d="M384.495,477.457c-5.376,3.141-10.871,6.059-16.47,8.79C334.182,502.75,296.175,512,256,512
	c-40.192,0-78.216-9.267-112.042-25.77c-5.598-2.73-11.076-5.665-16.435-8.79c34.97-32.426,79.718-51.882,128.478-51.882
	C304.777,425.558,349.526,445.014,384.495,477.457z"/>
<g>
	<polygon style="fill:#BFB098;" points="199.681,384.29 170.667,384.29 147.626,456.465 176.639,456.465 	"/>
	<polygon style="fill:#BFB098;" points="312.32,384.29 341.333,384.29 364.375,456.465 335.361,456.465 	"/>
</g>
<path style="fill:#525353;" d="M436.463,257.706c0,0.665,0,1.331-0.017,1.997c-0.29,27.973-6.945,54.408-18.586,77.943
	c-11.759,23.825-28.604,44.663-49.135,61.134c-30.958,24.849-70.263,39.697-113.015,39.697c-76.954,0-142.66-48.077-168.738-115.832
	c-7.782-20.156-12.032-42.052-12.032-64.938c0-99.823,80.93-180.754,180.77-180.754c67.498,0,126.378,37.018,157.406,91.87
	c5.99,10.582,10.957,21.828,14.728,33.604C433.442,219.853,436.463,238.421,436.463,257.706z"/>
<g>
	<path style="fill:#FFFFFF;" d="M372.054,393.966l-3.328,4.814c-30.958,24.849-70.263,39.697-113.015,39.697
		c-76.954,0-142.66-48.077-168.738-115.832c1.503-22.63,7.834-43.946,17.971-62.941c26.335-49.34,78.319-82.91,138.138-82.91
		c25.463,0,50.005,9.353,72.943,23.945l9.37,20.275l9.677,25.037L372.054,393.966z"/>
	<path style="fill:#FFFFFF;" d="M436.463,257.706c0,0.665,0,1.331-0.017,1.997c-0.29,27.973-6.945,54.408-18.586,77.943
		l-27.324-18.21l-35.721-59.734l-15.053-25.174c3.84-30.294,27.734-58.454,51.626-58.454c1.28,0,2.56,0.119,3.84,0.358
		c6.093,1.11,12.22,4.762,18.074,9.865c5.153,4.488,10.07,10.103,14.541,16.128C433.442,219.853,436.463,238.421,436.463,257.706z"
		/>
</g>
<path d="M341.47,225.997c0,0,3.84-67.84,40.534-72.534s49.066,80.214,49.066,80.214L341.47,225.997z"/>
<path style="fill:#BCBEBF;" d="M413.304,186.3v73.403h-58.488l-15.053-25.174c3.84-30.294,27.734-58.454,51.626-58.454
	C398.712,176.077,406.221,180.122,413.304,186.3z"/>
<path style="fill:#F9B138;" d="M339.081,418.134c56.542-7.868,112.606-67.414,112.606-67.414
	c-21.334-30.02-62.003-92.194-112.879-133.495h-0.017c-4.574-3.721-9.233-7.27-13.961-10.598c-2.902-2.048-5.854-4.01-8.806-5.888
	c-0.358,16.23-1.28,39.902-3.498,58.966c-0.068,0.58-0.137,1.143-0.205,1.706c-2.953,23.945-23.586,65.894-34.167,89.856v0.017
	c-3.754,8.483-6.23,14.711-6.23,17.084c0,9.097-5.12,50.62,55.177,50.62c0.768,0,1.519-0.017,2.287-0.034
	C332.612,418.867,335.855,418.594,339.081,418.134"/>
<path d="M316.024,200.738c-31.727-62.635-89.707-59.093-114.927-49.835c-33.706,12.374-60.16,44.374-58.026,73.386"/>
<path style="fill:#BCBEBF;" d="M267.946,179.712c16.623,3.823,32.7,11.247,48.077,21.026c-0.17,8.106-0.495,18.09-1.058,28.416
	c-0.547,10.342-1.331,21.026-2.441,30.55h-42.359H104.943c26.334-49.34,78.319-82.91,138.138-82.91
	C251.478,176.794,259.789,177.818,267.946,179.712"/>
<path d="M288.99,362.103c-25.032-5.12-73.956-35.272-73.956-35.272s34.134,46.08,80.214,59.164L288.99,362.103z"/>
<path d="M387.414,331.946l-48.333,86.186l-9.695,0.819c-0.768,0.017-1.518,0.034-2.286,0.034c-60.297,0-55.177-41.523-55.177-50.62
	c0-2.373,2.474-8.602,6.229-17.083v-0.018c9.711-21.418,68.745-64.495,71.083-109.601
	C351.574,196.557,387.414,331.946,387.414,331.946z"/>
<path style="fill:#E1006D;" d="M451.686,350.72l-0.017,0.017l-0.017,0.034c-1.724,1.792-56.918,59.615-112.572,67.363
	c-19.951-15.326-26.59-29.919-23.074-48.111c2.304-11.878,8.943-25.31,19.063-41.489c25.6-40.96,21.043-81.92,3.721-111.309h0.017
	C389.683,258.526,430.354,320.7,451.686,350.72z"/>
<path style="fill:#9D1D54;" d="M451.67,350.737l-0.017,0.034c-1.724,1.792-56.918,59.615-112.572,67.363
	c-19.951-15.326-26.59-29.919-23.074-48.111h0.017C404.48,382.874,450.475,351.556,451.67,350.737z"/>
<g>
	<path style="fill:#E2DEDC;" d="M316.024,200.738c-0.171,8.106-0.495,18.09-1.059,28.416c-0.546,10.342-1.331,21.025-2.441,30.55
		h-42.359l-2.218-24.457v-55.535C284.57,183.535,300.646,190.958,316.024,200.738z"/>
	<path style="fill:#E2DEDC;" d="M436.463,257.706c0,0.665,0,1.331-0.017,1.997H395.23v-83.268c6.093,1.11,12.22,4.762,18.074,9.865
		c5.153,4.488,10.07,10.103,14.541,16.128C433.442,219.853,436.463,238.421,436.463,257.706z"/>
</g>
<polygon style="fill:#919494;" points="287.853,254.583 267.373,190.299 251.513,241.579 185.453,259.703 273.63,278.477 "/>
<circle cx="267.94" cy="259.7" r="24.462"/>
<polygon style="fill:#919494;" points="413.304,212.77 403.766,254.726 422.891,255.02 "/>
<ellipse cx="413.31" cy="259.7" rx="9.936" ry="17.857"/>
<ellipse style="fill:#FFFFFF;" cx="413.31" cy="250.47" rx="3.846" ry="6.912"/>
<circle style="fill:#E2DEDC;" cx="267.94" cy="247.76" r="8.668"/>
<path style="fill:#BFB098;" d="M368.026,456.465v29.782C334.182,502.75,296.175,512,256,512c-40.192,0-78.216-9.267-112.042-25.77
	v-29.764h224.068V456.465z"/>
<path style="fill:#AA9676;" d="M368.026,456.465v29.782C334.182,502.75,296.175,512,256,512v-55.535H368.026z"/>
<path style="fill:#8A7460;" d="M377.055,481.604c-4.864,2.628-9.83,5.102-14.899,7.406l-2.167-27.921H152.013l-2.167,27.921
	c-5.052-2.304-10.017-4.762-14.899-7.39l2.867-32.478h236.374L377.055,481.604z"/>
<g>
</g>
<g>
</g>
<g>
</g>
<g>
</g>
<g>
</g>
<g>
</g>
<g>
</g>
<g>
</g>
<g>
</g>
<g>
</g>
<g>
</g>
<g>
</g>
<g>
</g>
<g>
</g>
<g>
</g>
</svg>
