<svg id="Layer_1" enable-background="new 0 0 512 512" height="512" viewBox="0 0 512 512" width="512" xmlns="http://www.w3.org/2000/svg"><g><path d="m421.629 329.369c-9.152-61.21-22.782-117.603-24.691-125.38v-29.175c0-4.142-3.358-7.5-7.5-7.5h-7.42l5.975-29.681c2.311-11.481-1.827-23.286-10.799-30.806l-15.258-12.789c-4.761-3.991-6.957-10.256-5.73-16.351l6.292-31.254 5.935-29.48c.817-4.06-1.811-8.014-5.87-8.832l-39.543-7.973c-1.952-.392-3.977.004-5.634 1.106-1.657 1.101-2.809 2.815-3.201 4.766l-5.935 29.48-6.292 31.254c-1.227 6.093-5.673 11.017-11.605 12.851l-19.017 5.878c-.062.019-.125.039-.187.059-.083-.328-.187-.652-.315-.97l-19.457-48.313v-28.759c0-4.142-3.358-7.5-7.5-7.5h-36.704c-4.142 0-7.5 3.358-7.5 7.5s3.358 7.5 7.5 7.5h29.204v15.211h-71.315v-15.211h7.568c4.142 0 7.5-3.358 7.5-7.5s-3.358-7.5-7.5-7.5h-15.068c-4.142 0-7.5 3.358-7.5 7.5v28.758l-19.399 48.17c-.343.801-.55 1.675-.592 2.591-.001.015-.001.03-.002.045-.002.055-.004.111-.005.166 0 .022-.001.045-.001.067 0 .026-.001.051-.001.077v79.94h-7.5c-4.142 0-7.5 3.358-7.5 7.5v29.175c-1.909 7.778-15.539 64.17-24.691 125.38-5.787 38.699-8.688 71.785-8.623 98.34.085 34.914 5.171 58.347 15.547 71.639 6.461 8.277 15.198 12.652 25.266 12.652h23.07c4.142 0 7.5-3.358 7.5-7.5s-3.358-7.5-7.5-7.5h-23.07c-5.505 0-9.776-2.187-13.441-6.882-30.306-38.82 2.468-208.343 19.318-277.717h255.123c16.85 69.374 49.624 238.897 19.318 277.717-3.665 4.695-7.937 6.882-13.441 6.882h-208.697c-4.142 0-7.5 3.358-7.5 7.5s3.358 7.5 7.5 7.5h208.697c10.068 0 18.805-4.375 25.266-12.652 10.376-13.292 15.462-36.726 15.547-71.639.066-26.555-2.835-59.642-8.622-98.34zm-69.382-308.026-2.975 14.775-11.345-2.287-13.493-2.72 2.975-14.775zm-57.464 72.593c11.185-3.458 19.569-12.739 21.881-24.222l4.812-23.899 11.345 2.287 13.493 2.72-4.814 23.905c-2.311 11.481 1.827 23.286 10.8 30.807l15.258 12.789c4.761 3.991 6.957 10.255 5.73 16.35l-6.571 32.641h-18.027l6.596-32.767c.817-4.06-1.811-8.014-5.87-8.832l-60.537-12.206c-4.016-.808-7.933 1.749-8.809 5.748l-10.526 48.057h-16.385l11.002-54.648c1.227-6.093 5.673-11.017 11.605-12.851zm38.606 73.377h-48.489l8.245-37.643 45.957 9.266zm-170.762-122.102h76.186l13.959 34.662h-104.104zm-17.565 49.662h111.749c-3.647 4.137-6.226 9.221-7.355 14.832l-.005.027h-82.394c-4.142 0-7.5 3.358-7.5 7.5v50.082h-14.495zm-15 102.528v-15.088h59.658c4.142 0 7.5-3.358 7.5-7.5s-3.358-7.5-7.5-7.5h-15.163v-42.582h71.874l-8.572 42.582h-13.731c-4.142 0-7.5 3.358-7.5 7.5s3.358 7.5 7.5 7.5h157.811v15.088z"/><path d="m255.591 413.582c23.077 0 45.332-8.424 62.666-23.719 3.106-2.741 3.402-7.48.661-10.586-2.74-3.105-7.48-3.402-10.586-.661-14.591 12.875-33.322 19.966-52.741 19.966-44.029 0-79.85-35.851-79.85-79.918v-54.469h15v54.469c0 35.783 29.091 64.895 64.85 64.895s64.85-29.112 64.85-64.895v-54.469h15v54.469c0 12.776-2.935 24.988-8.723 36.299-1.887 3.687-.427 8.206 3.26 10.093 3.685 1.886 8.206.427 10.093-3.26 6.784-13.256 10.369-28.171 10.369-43.132v-54.469h7.5c4.142 0 7.5-3.358 7.5-7.5s-3.358-7.5-7.5-7.5h-60c-4.142 0-7.5 3.358-7.5 7.5s3.358 7.5 7.5 7.5h7.5v54.469c0 27.512-22.362 49.895-49.85 49.895s-49.85-22.383-49.85-49.895v-54.469h7.5c4.142 0 7.5-3.358 7.5-7.5s-3.358-7.5-7.5-7.5h-60c-4.142 0-7.5 3.358-7.5 7.5s3.358 7.5 7.5 7.5h7.5v54.469c.001 52.337 42.551 94.918 94.851 94.918z"/></g></svg>