<svg xmlns="http://www.w3.org/2000/svg" width="524" height="485.5" viewBox="0 0 524 485.5">
  <g id="product" transform="translate(6 -13.25)">
    <path id="Path_664" data-name="Path 664" d="M512,414.25v-395H0v395H191v33.5a15.017,15.017,0,0,1-15,15H115v30H397v-30H336a15.017,15.017,0,0,1-15-15v-33.5Zm-30-365v275H30v-275Zm-452,335v-30H482v30Zm263.57,78.5H218.43a44.805,44.805,0,0,0,2.57-15v-33.5h70v33.5A44.805,44.805,0,0,0,293.57,462.75Z" fill="none" stroke="#000" stroke-width="12"/>
    <path id="Path_665" data-name="Path 665" d="M237.584,134.811H217.4a42.754,42.754,0,0,0-68.609-45.273,42.766,42.766,0,0,0-68.609,45.273H60V294.25H237.584ZM176.572,109.25a12.78,12.78,0,0,1,0,25.56h-12.78V122.03A12.794,12.794,0,0,1,176.572,109.25Zm-68.341,12.78a12.78,12.78,0,0,1,25.56,0v12.78h-12.78A12.794,12.794,0,0,1,108.231,122.03ZM90,164.811h43.792V264.25H90ZM207.584,264.25H163.792V164.811h43.792Z" fill="none" stroke="#000" stroke-width="12"/>
    <path id="Path_666" data-name="Path 666" d="M312.326,234.647l52.725-27.719,52.724,27.719-10.069-58.709,42.656-41.578-58.949-8.565L365.052,72.379,338.69,125.795l-58.947,8.565L322.4,175.938Zm46.284-81.432,6.44-13.049,6.439,13.049,14.4,2.093-10.42,10.156,2.46,14.344-12.88-6.771-12.881,6.771,2.46-14.344-10.42-10.156Z" fill="none" stroke="#000" stroke-width="12"/>
    <path id="Path_667" data-name="Path 667" d="M278.1,264.25H452v30H278.1Z" fill="none" stroke="#000" stroke-width="12"/>
  </g>
</svg>
