<?xml version="1.0"?>
<svg xmlns="http://www.w3.org/2000/svg" id="Layer_1" data-name="Layer 1" viewBox="0 0 512 512" width="512" height="512"><title>Search</title><path d="M380.47,322.573a8,8,0,0,0-11.315,0l-17.543,17.543-23.1-23.1A176.659,176.659,0,0,0,375.013,197.43c0-97.819-79.626-177.4-177.5-177.4s-177.5,79.581-177.5,177.4,79.626,177.4,177.5,177.4a176.87,176.87,0,0,0,119.678-46.507L340.3,351.43l-17.743,17.743a8,8,0,0,0,0,11.313l99.5,99.5c.352.353.7.673,1.055.99.148.133.3.263.445.41q.151.151.31.295a40.948,40.948,0,0,0,56.1-59.608ZM197.513,358.83c-89.052,0-161.5-72.4-161.5-161.4s72.448-161.4,161.5-161.4,161.5,72.4,161.5,161.4S286.564,358.83,197.513,358.83ZM468.586,468.743a24.821,24.821,0,0,1-33.9,1.147c-.29-.282-.58-.545-.871-.807-.147-.133-.3-.263-.444-.41L339.526,374.83l35.286-35.287,93.8,93.8A25.023,25.023,0,0,1,468.586,468.743Z"/><path d="M198.224,173.763a25.863,25.863,0,1,0,25.862,25.862A25.892,25.892,0,0,0,198.224,173.763Zm0,35.725a9.863,9.863,0,1,1,9.862-9.863A9.874,9.874,0,0,1,198.224,209.488Z"/><path d="M294.011,200.169a25.777,25.777,0,0,0-6.88.937c-.362-.49-.718-.98-1.089-1.47q4.548-6.02,8.245-12.053c14.379-23.521,16.9-44.356,7.087-58.666s-30.15-19.475-57.273-14.548c-.353.064-.714.146-1.068.214-.144-.33-.281-.674-.428-1-11.27-25.16-27.033-39.016-44.381-39.016a31.988,31.988,0,0,0-3.441.2A25.846,25.846,0,0,0,156.2,108.625q-1.451,2.883-2.794,5.955c-.35-.066-.708-.147-1.056-.211-27.123-4.928-47.466.238-57.275,14.548s-7.292,35.145,7.087,58.666q3.682,6.024,8.249,12.059c-.287.379-.569.758-.851,1.137A25.851,25.851,0,0,0,89.3,247.3c-.536,8.8,1.42,16.681,5.774,23.034,7.387,10.777,20.743,16.368,38.474,16.367a105.571,105.571,0,0,0,18.8-1.819c.352-.064.713-.146,1.067-.213.145.33.281.674.428,1,11.27,25.16,27.033,39.016,44.382,39.016s33.111-13.856,44.381-39.016c.147-.327.284-.671.428-1,.355.067.715.149,1.068.213a105.541,105.541,0,0,0,18.8,1.819c17.729,0,31.087-5.591,38.474-16.366,4.192-6.115,6.164-13.656,5.824-22.067a25.855,25.855,0,0,0-13.187-48.1Zm9.862,25.863a9.863,9.863,0,1,1-9.862-9.863A9.873,9.873,0,0,1,303.873,226.032ZM233.063,265.8a173.311,173.311,0,0,1-16.961-6c5.472-3.2,10.919-6.642,16.294-10.326,2.029-1.391,4.02-2.81,5.993-4.241A176.63,176.63,0,0,1,233.063,265.8Zm-69.713.01a176.87,176.87,0,0,1-5.3-20.576q2.959,2.149,6,4.244,8.064,5.526,16.3,10.326A173.3,173.3,0,0,1,163.35,265.81Zm-25.457-58.838q-3.566-3.641-6.818-7.329,3.248-3.679,6.808-7.317-.1,3.632-.1,7.3C137.783,202.087,137.827,204.534,137.893,206.972Zm35.2,29.308c-6.421-4.4-12.532-9.018-18.284-13.781-.676-7.438-1.03-15.089-1.03-22.874s.349-15.418,1.022-22.836c5.778-4.8,11.894-9.433,18.292-13.819a248.731,248.731,0,0,1,25.127-15.151A249.052,249.052,0,0,1,223.35,162.97c6.4,4.387,12.512,9.02,18.287,13.812.675,7.428,1.027,15.07,1.027,22.843,0,7.936-.358,15.574-1.024,22.868-5.754,4.765-11.868,9.385-18.29,13.787a249.064,249.064,0,0,1-25.126,15.152A248.743,248.743,0,0,1,173.1,236.28Zm-9.772-102.847a173.371,173.371,0,0,1,17.021,6.014q-8.211,4.8-16.3,10.326c-2.037,1.4-4.039,2.825-6.025,4.268A176.394,176.394,0,0,1,163.325,133.433Zm69.772.007a176.972,176.972,0,0,1,5.3,20.582c-1.977-1.436-3.97-2.859-6-4.249-5.375-3.685-10.822-7.125-16.295-10.326A173.223,173.223,0,0,1,233.1,133.44Zm25.459,58.869q3.567,3.641,6.817,7.331-3.249,3.689-6.818,7.331c.065-2.438.109-4.884.109-7.346S258.62,194.737,258.556,192.309Zm29.621-54.345c5.943,8.669,3.194,23.713-7.541,41.274q-2.36,3.858-5.139,7.735a228.347,228.347,0,0,0-18.625-18.219,212.026,212.026,0,0,0-8.15-38.932C268.073,126.623,282.408,129.549,288.177,137.964ZM177.513,84.138A9.862,9.862,0,1,1,167.65,94,9.873,9.873,0,0,1,177.513,84.138Zm-8.323,34.343a25.865,25.865,0,0,0,34.052-27.11c8.569,2.721,17.071,12.257,24.02,27.131a204.32,204.32,0,0,0-29.039,11.427A204.231,204.231,0,0,0,169.182,118.5Zm-53.379,60.757c-10.736-17.561-13.485-32.6-7.541-41.275,5.766-8.411,20.1-11.335,39.441-8.142a212.8,212.8,0,0,0-8.143,38.938,228.871,228.871,0,0,0-18.621,18.212C119.1,184.39,117.383,181.809,115.811,179.238Zm-11.822,36.931a9.863,9.863,0,1,1-9.862,9.863A9.874,9.874,0,0,1,103.989,216.169Zm4.281,45.119a18.425,18.425,0,0,1-3.016-9.426,25.849,25.849,0,0,0,24.113-30.8q4.881,4.8,10.211,9.467a211.98,211.98,0,0,0,8.148,38.9C128.374,272.626,114.038,269.7,108.27,261.288Zm89.954,47.4c-10.2,0-20.733-10.156-29.038-27.937a204.347,204.347,0,0,0,29.038-11.426A204.24,204.24,0,0,0,227.2,280.728C218.871,298.44,208.273,308.685,198.224,308.685Zm50.5-39.257a211.909,211.909,0,0,0,8.147-38.9q6.448-5.637,12.249-11.491a25.843,25.843,0,0,0,22.089,32.706,18.482,18.482,0,0,1-3.03,9.548C282.41,269.7,268.075,272.628,248.722,269.428Z"/></svg>
