<svg xmlns="http://www.w3.org/2000/svg" width="460.196" height="525.004" viewBox="0 0 460.196 525.004">
  <g id="single-product" transform="translate(6.5 6.5)">
    <path id="Path_638" data-name="Path 638" d="M136.289,271h180a14.991,14.991,0,0,0,15-15V75a14.991,14.991,0,0,0-15-15h-45V45a45,45,0,0,0-90,0V60h-45a14.994,14.994,0,0,0-15,15V256A14.994,14.994,0,0,0,136.289,271Zm75-226a15,15,0,0,1,30,0V60h-30Zm0,0" fill="none" stroke="#000" stroke-width="13"/>
    <path id="Path_639" data-name="Path 639" d="M444.816,248.234A15,15,0,0,0,431.984,241a71.067,71.067,0,0,0-62.945,38.078L323.027,366.89A44.909,44.909,0,0,1,283.156,391H181.289a15,15,0,1,1,0-30H283.152a14.983,14.983,0,0,0,13.3-8.043c2.6-4.961,10.445-19.941,17.191-32.816A13.068,13.068,0,0,0,302.054,301H146.132A74.522,74.522,0,0,0,93.1,322.972L4.394,411.683a14.994,14.994,0,0,0,0,21.211l75,74.711a14.985,14.985,0,0,0,21.211,0L157.5,451H283.152a104.754,104.754,0,0,0,93.02-56.266l69.082-131.762a14.947,14.947,0,0,0-.437-14.738Zm0,0" fill="none" stroke="#000" stroke-width="13"/>
  </g>
</svg>
