<svg id="Capa_1" enable-background="new 0 0 512 512" height="512" viewBox="0 0 512 512" width="512" xmlns="http://www.w3.org/2000/svg"><path d="m195.797 117.997 9.192 8.938c2.61 2.538 3.801 6.191 3.185 9.772l-2.17 12.622c-2.219 12.911 11.358 22.764 22.964 16.674l11.363-5.959h.001c3.237-1.697 7.101-1.697 10.338 0l11.363 5.959c11.618 6.097 25.18-3.773 22.964-16.674l-2.17-12.623c-.616-3.58.574-7.233 3.185-9.771l9.192-8.938c9.4-9.142 4.218-25.094-8.77-26.978l-12.704-1.842c-3.616-.523-6.739-2.786-8.354-6.05l-5.682-11.485c-5.808-11.74-22.58-11.736-28.388.001l-5.681 11.483c-1.615 3.265-4.738 5.527-8.354 6.051l-12.704 1.842c-12.98 1.883-18.176 17.83-8.77 26.978zm10.922-12.132 12.704-1.842c8.499-1.232 15.843-6.558 19.647-14.245l5.681-11.483c.307-.622 1.191-.625 1.499-.001l5.681 11.485c3.804 7.688 11.149 13.012 19.647 14.244l12.705 1.842c.696.098.948.906.464 1.378l-9.192 8.938c-6.157 5.987-8.966 14.611-7.511 23.067l2.17 12.622c.112.648-.567 1.183-1.214.85l-11.362-5.959c-7.6-3.986-16.673-3.986-24.274 0l-11.364 5.96c-.639.332-1.326-.194-1.213-.85l2.17-12.622c1.454-8.456-1.354-17.08-7.511-23.067l-9.192-8.938c-.488-.475-.229-1.281.465-1.379z"/><path d="m474.5 408.5h-40.188v-120.452c0-4.143-3.357-7.5-7.5-7.5s-7.5 3.357-7.5 7.5v80.452h-158.999v-145h158.999v32.5c0 4.143 3.357 7.5 7.5 7.5s7.5-3.357 7.5-7.5v-40c0-4.143-3.357-7.5-7.5-7.5h-28.996c-3.75-28.175-28.333-50-58.004-50s-54.254 21.825-58.004 50h-28.995c-4.142 0-7.5 3.357-7.5 7.5v192.5h-40.026c.906-2.46 1.401-5.118 1.401-7.89v-169.922c0-33.432-19.608-50.857-25.102-60.509-7.679-10.839-11.738-23.589-11.738-36.872v-61.937c2.927-2.087 4.84-5.509 4.84-9.37v-22c0-6.341-5.159-11.5-11.5-11.5h-42c-6.341 0-11.5 5.159-11.5 11.5v22c0 4 2.053 7.528 5.16 9.589v23.901c0 4.143 3.358 7.5 7.5 7.5s7.5-3.357 7.5-7.5v-21.99h25v59.808c0 16.407 5.014 32.156 14.499 45.544 5.857 10.107 22.341 24.089 22.341 51.837v3.592h-99v-3.431c0-27.905 16.677-41.959 22.475-51.896 9.607-13.443 14.686-29.282 14.686-45.807v-5.563c0-4.143-3.358-7.5-7.5-7.5s-7.5 3.357-7.5 7.5v5.563c0 13.378-4.111 26.201-11.89 37.085-5.42 9.457-25.271 26.986-25.271 60.617v169.761c0 2.771.495 5.429 1.401 7.89h-41.589c-20.678 0-37.5 16.822-37.5 37.5s16.822 37.5 37.5 37.5h26.46c4.142 0 7.5-3.357 7.5-7.5s-3.358-7.5-7.5-7.5h-26.46c-12.407 0-22.5-10.094-22.5-22.5s10.093-22.5 22.5-22.5h437c12.406 0 22.5 10.094 22.5 22.5s-10.094 22.5-22.5 22.5h-378.446c-4.142 0-7.5 3.357-7.5 7.5s3.358 7.5 7.5 7.5h378.446c20.678 0 37.5-16.822 37.5-37.5s-16.822-37.5-37.5-37.5zm-134.688-235c21.368 0 39.186 15.13 42.822 35h-85.644c3.636-19.87 21.454-35 42.822-35zm-215.124-115v-15h35v15zm67 190.78v119h-99v-119zm-91.11 159.22c-4.35 0-7.89-3.539-7.89-7.89v-17.33h99v17.33c0 4.351-3.539 7.89-7.889 7.89zm159.735 0v-25h158.999v25z"/><path d="m334.729 268.244c-3.736-2.248-8.415-2.313-12.212-.168-3.828 2.164-6.206 6.252-6.206 10.668v34.512c0 4.416 2.378 8.504 6.206 10.668 1.848 1.044 3.905 1.565 5.961 1.565 2.167 0 4.334-.579 6.252-1.733l28.662-17.257c3.707-2.23 5.919-6.155 5.919-10.499s-2.212-8.269-5.918-10.499zm-3.417 40.062v-24.611l20.438 12.305z"/></svg>