<svg width="86" height="81" viewBox="0 0 86 81" fill="none" xmlns="http://www.w3.org/2000/svg">
<path d="M79.39 2H6.43C3.98338 2 2 3.98338 2 6.43V74.23C2 76.6766 3.98338 78.66 6.43 78.66H79.39C81.8366 78.66 83.82 76.6766 83.82 74.23V6.43C83.82 3.98338 81.8366 2 79.39 2Z" stroke="#556067" stroke-width="3" stroke-miterlimit="10"/>
<path d="M17.54 16.3301H37.54V36.1601L30.7401 29.8901C24.6101 37.6301 27.0501 48.2601 35.5701 51.8901C41.8901 54.5901 41.8901 54.5901 40.7101 62.1401C36.9809 62.2178 33.2956 61.3249 30.0156 59.549C26.7355 57.7732 23.9734 55.1752 22 52.0101C15.46 42.1301 16.7801 32.3901 23.8501 23.0101L17.54 16.3301Z" fill="#556067"/>
<path d="M66.28 62.2505H46.28V42.1605L52.94 48.5205C60.94 40.2505 56.47 29.2905 43.11 24.8605V16.2305C51.58 16.6705 57.98 20.2305 62.24 27.1005C68.29 36.8205 66.96 46.3005 60 55.4205L66.28 62.2505Z" fill="#556067"/>
</svg>
