<svg id="Layer_1" enable-background="new 0 0 480.009 480.009" height="512" viewBox="0 0 480.009 480.009" width="512" xmlns="http://www.w3.org/2000/svg"><path d="m460.936 374.545-13.995-128.552c-1.771-16.268-15.448-28.536-31.813-28.536h-10.195v-23.396c0-30.908-25.146-56.053-56.053-56.053-30.908 0-56.054 25.146-56.054 56.053v23.395h-10.195c-16.364 0-30.041 12.268-31.813 28.537l-13.995 128.552c-2.06 18.924 12.788 35.463 31.813 35.463h160.488c19.004.001 33.875-16.515 31.812-35.463zm-31.811 19.464h-160.488c-9.544 0-16.939-8.258-15.906-17.732l13.995-128.551c.886-8.134 7.724-14.269 15.906-14.269h10.195v20.191c0 4.418 3.582 8 8 8s8-3.582 8-8v-59.586c0-22.085 17.968-40.053 40.054-40.053 22.085 0 40.053 17.968 40.053 40.053v23.395h-50.637c-4.418 0-8 3.582-8 8s3.582 8 8 8h50.637v20.191c0 4.418 3.582 8 8 8s8-3.582 8-8v-20.191h10.195c8.183 0 15.021 6.134 15.906 14.268l13.995 128.551c1.034 9.488-6.374 17.733-15.905 17.733zm-52.244 46c-4.418 0-8 3.582-8 8 0 8.822-7.178 16-16 16h-302c-8.822 0-16-7.178-16-16v-416c0-8.822 7.178-16 16-16h225v61c0 17.645 14.355 32 32 32h69c7.112 0 10.683-8.631 5.657-13.657-100.152-100.152-93.669-94.509-97.092-95.188-1.105-.219 11.636-.155-234.565-.155-17.645 0-32 14.355-32 32v416c0 17.645 14.355 32 32 32h302c17.645 0 32-14.355 32-32 0-4.419-3.582-8-8-8zm-69-347c-8.822 0-16-7.178-16-16v-49.687l65.687 65.687zm-161.885 25.004c.026-13.284-10.715-24.047-24-24.047h-16.146c-13.233 0-24 10.766-24 24v16.085c0 13.234 10.767 24 24 24h16.115c13.209 0 23.976-10.746 24-23.954zm-16.031 16.054c-.008 4.403-3.597 7.984-8 7.984h-16.115c-4.411 0-8-3.589-8-8v-16.085c0-4.411 3.589-8 8-8h16.146c4.429 0 8.008 3.587 8 8.015zm15.916 103.942c0-13.234-10.767-24-24-24h-16c-13.233 0-24 10.766-24 24v16c0 13.234 10.767 24 24 24h16c13.233 0 24-10.766 24-24zm-16 16c0 4.411-3.589 8-8 8h-16c-4.411 0-8-3.589-8-8v-16c0-4.411 3.589-8 8-8h16c4.411 0 8 3.589 8 8zm-8 80h-16c-13.233 0-24 10.766-24 24v16c0 13.234 10.767 24 24 24h16c13.233 0 24-10.766 24-24v-16c0-13.234-10.767-24-24-24zm8 40c0 4.411-3.589 8-8 8h-16c-4.411 0-8-3.589-8-8v-16c0-4.411 3.589-8 8-8h16c4.411 0 8 3.589 8 8zm110.123-240h-55c-4.418 0-8-3.582-8-8s3.582-8 8-8h55c4.418 0 8 3.582 8 8s-3.582 8-8 8zm-23 120h-32c-4.418 0-8-3.582-8-8s3.582-8 8-8h32c4.418 0 8 3.582 8 8s-3.582 8-8 8zm-12 104c4.418 0 8 3.582 8 8s-3.582 8-8 8h-20c-4.418 0-8-3.582-8-8s3.582-8 8-8z"/></svg>